<svg width="20" height="21" viewBox="0 0 20 21" fill="none" xmlns="http://www.w3.org/2000/svg">
<path fill-rule="evenodd" clip-rule="evenodd" d="M13.8822 1.92578C16.6572 1.92578 18.7497 4.18995 18.7497 7.19245V12.9158C18.7497 14.4524 18.2063 15.8408 17.2188 16.8258C16.333 17.7083 15.1838 18.1758 13.8955 18.1758H5.68467C4.39884 18.1758 3.25051 17.7091 2.36384 16.8258C1.37634 15.8408 0.833008 14.4524 0.833008 12.9158V7.19245C0.833008 4.18995 2.92551 1.92578 5.70051 1.92578H13.8822ZM13.8822 3.17578H5.70051C3.60467 3.17578 2.08301 4.86495 2.08301 7.19245V12.9158C2.08301 14.1183 2.49634 15.1924 3.24634 15.9399C3.89301 16.5858 4.73717 16.9258 5.68717 16.9258H13.8822C13.8838 16.9241 13.8905 16.9258 13.8955 16.9258C14.8463 16.9258 15.6897 16.5858 16.3363 15.9399C17.0872 15.1924 17.4997 14.1183 17.4997 12.9158V7.19245C17.4997 4.86495 15.978 3.17578 13.8822 3.17578ZM15.1955 7.03311C15.413 7.30061 15.3722 7.69395 15.1047 7.91228L11.4013 10.9223C10.933 11.2939 10.373 11.4798 9.81384 11.4798C9.25634 11.4798 8.70051 11.2956 8.23551 10.9273L4.49801 7.91395C4.22884 7.69728 4.18717 7.30311 4.40301 7.03478C4.62051 6.76728 5.01384 6.72478 5.28217 6.94061L9.01634 9.95061C9.48551 10.3223 10.1463 10.3223 10.6188 9.94728L14.3155 6.94228C14.5838 6.72311 14.9772 6.76478 15.1955 7.03311Z" fill="#B0B0B2"/>
</svg>
