<svg width="72" height="20" viewBox="0 0 72 20" fill="none" xmlns="http://www.w3.org/2000/svg">
<path d="M16.6473 6.68164C16.8437 6.68164 16.9091 6.75255 16.9091 6.94346V11.2635H19.1291C19.3201 11.2635 19.391 11.3344 19.391 11.5253V11.9071C19.391 12.098 19.3201 12.1689 19.1291 12.1689H16.2055C16.0146 12.1689 15.9382 12.098 15.9382 11.9071V6.94346C15.9382 6.75255 16.0146 6.68164 16.2055 6.68164H16.6473Z" fill="#D1D1D1"/>
<path d="M21.3273 8.58556C21.3273 7.32556 22.1236 6.56738 23.5091 6.56738C24.8945 6.56738 25.6909 7.32556 25.6909 8.58556V10.2656C25.6909 11.5256 24.8891 12.2837 23.5091 12.2837C22.1291 12.2837 21.3273 11.5256 21.3273 10.2656V8.58556ZM24.7745 8.58556C24.7745 7.87647 24.3327 7.49466 23.5364 7.49466C22.74 7.49466 22.3036 7.88193 22.3036 8.58556V10.2765C22.3036 10.991 22.74 11.3674 23.5364 11.3674C24.3327 11.3674 24.7745 10.9747 24.7745 10.2765V8.58556Z" fill="#D1D1D1"/>
<path d="M32.1873 9.16408C32.4 9.16408 32.4491 9.23499 32.4491 9.4259V10.4623C32.4549 10.7064 32.406 10.9487 32.3059 11.1714C32.2058 11.3942 32.0572 11.5917 31.8709 11.7495C31.4082 12.118 30.8248 12.3008 30.2346 12.2623C28.8218 12.2623 28.0527 11.5041 28.0527 10.2441V8.55317C28.0527 7.30954 28.8491 6.5459 30.2346 6.5459C31.3255 6.5459 32.0346 6.97681 32.3346 7.83863C32.3514 7.87103 32.3604 7.90686 32.3608 7.9433C32.3613 7.97979 32.3533 8.0159 32.3374 8.04868C32.3216 8.08152 32.2982 8.11021 32.2693 8.13246C32.2404 8.15466 32.2067 8.16988 32.1709 8.17681L31.7455 8.32408C31.56 8.38953 31.4836 8.35135 31.4182 8.16044C31.3278 7.92748 31.1624 7.73123 30.948 7.60283C30.7336 7.47443 30.4826 7.42108 30.2346 7.45135C29.4327 7.45135 28.9964 7.83863 28.9964 8.54226V10.2768C28.9964 10.9914 29.4382 11.3677 30.2346 11.3677C31.0309 11.3677 31.5218 11.0023 31.5218 10.4677V10.0641H30.3382C30.1418 10.0641 30.0709 9.98772 30.0709 9.79681V9.4259C30.0709 9.23499 30.1418 9.16408 30.3382 9.16408H32.1873Z" fill="#D1D1D1"/>
<path d="M34.7018 8.58556C34.7018 7.32556 35.4981 6.56738 36.8836 6.56738C38.2691 6.56738 39.0654 7.32556 39.0654 8.58556V10.2656C39.0654 11.5256 38.2636 12.2837 36.8836 12.2837C35.5036 12.2837 34.7018 11.5256 34.7018 10.2656V8.58556ZM38.1436 8.58556C38.1436 7.87647 37.7018 7.49466 36.9109 7.49466C36.12 7.49466 35.6727 7.88193 35.6727 8.58556V10.2765C35.6727 10.991 36.1145 11.3674 36.9109 11.3674C37.7072 11.3674 38.1436 10.9747 38.1436 10.2765V8.58556Z" fill="#D1D1D1"/>
<path d="M41.6345 6.83982C41.6345 6.71982 41.6727 6.68164 41.7927 6.68164H42.0436C42.1636 6.68164 42.1909 6.71982 42.1909 6.83982V12.0107C42.1909 12.1307 42.1909 12.1689 42.0436 12.1689H41.7927C41.6727 12.1689 41.6345 12.1307 41.6345 12.0107V6.83982Z" fill="#D1D1D1"/>
<path d="M47.16 6.68164C47.6143 6.68164 48.0499 6.86208 48.3711 7.1833C48.6923 7.50446 48.8727 7.94011 48.8727 8.39437C48.8727 8.84862 48.6923 9.28428 48.3711 9.60544C48.0499 9.92666 47.6143 10.1071 47.16 10.1071H45.5236V12.0107C45.5236 12.1307 45.4964 12.1689 45.3818 12.1689H45.1255C45.0109 12.1689 44.9673 12.1307 44.9673 12.0107V6.83982C44.9673 6.71982 45.0109 6.68164 45.1255 6.68164H47.16ZM47.1109 9.5671C47.2671 9.5671 47.4217 9.53633 47.566 9.4766C47.7102 9.41682 47.8413 9.32922 47.9517 9.21882C48.0621 9.10842 48.1497 8.9773 48.2095 8.83308C48.2692 8.6888 48.3 8.53417 48.3 8.378C48.3 8.22184 48.2692 8.0672 48.2095 7.92293C48.1497 7.77871 48.0621 7.64759 47.9517 7.53719C47.8413 7.42679 47.7102 7.33919 47.566 7.2794C47.4217 7.21968 47.2671 7.18891 47.1109 7.18891H45.4746V9.5671H47.1109Z" fill="#D1D1D1"/>
<path d="M53.1328 6.57243C53.5539 6.52596 53.9788 6.61656 54.3444 6.83076C54.7097 7.04501 54.9966 7.37141 55.1619 7.76152C55.2055 7.84879 55.1619 7.9197 55.0746 7.96334L54.8346 8.07243C54.7364 8.11061 54.6982 8.10516 54.6382 8.00152C54.5146 7.71199 54.3022 7.46927 54.0315 7.30847C53.7609 7.14767 53.4462 7.07708 53.1328 7.10698C52.211 7.10698 51.7092 7.47243 51.7092 8.12698C51.7038 8.32699 51.771 8.52227 51.8983 8.67663C52.0256 8.83099 52.2045 8.93414 52.4019 8.96698C52.6952 9.06265 52.9994 9.12128 53.3073 9.14152C53.68 9.16138 54.0477 9.23676 54.3982 9.36516C54.6672 9.45019 54.8984 9.62507 55.0533 9.86048C55.2082 10.0959 55.2775 10.3775 55.2492 10.6579C55.2492 11.6779 54.5073 12.2942 53.1437 12.2942C52.6964 12.3454 52.2451 12.2418 51.865 12.0006C51.4849 11.7594 51.1988 11.3952 51.0546 10.9688C51.045 10.9494 51.0398 10.928 51.0393 10.9063C51.0389 10.8846 51.0433 10.8631 51.0522 10.8433C51.061 10.8235 51.0741 10.8059 51.0906 10.7918C51.107 10.7776 51.1264 10.7673 51.1473 10.7615L51.3873 10.6742C51.4062 10.6665 51.4266 10.6628 51.447 10.6633C51.4674 10.6639 51.4874 10.6687 51.5059 10.6774C51.5244 10.6861 51.5408 10.6986 51.5542 10.714C51.5676 10.7294 51.5776 10.7474 51.5837 10.767C51.7057 11.0751 51.9227 11.3364 52.2032 11.5129C52.4836 11.6894 52.8131 11.7721 53.1437 11.7488C54.1746 11.7488 54.6819 11.3888 54.6819 10.6579C54.6917 10.4658 54.6328 10.2764 54.5157 10.1236C54.3989 9.97083 54.2316 9.86441 54.0437 9.82334C53.7615 9.73918 53.4704 9.6879 53.1764 9.67061L52.5873 9.59425C52.403 9.55514 52.2209 9.50594 52.0419 9.44698C51.865 9.39358 51.7002 9.30652 51.5564 9.19061C51.4117 9.05959 51.2977 8.89836 51.2222 8.7183C51.1468 8.53825 51.1119 8.34385 51.1201 8.14879C51.1582 7.19425 51.8728 6.57243 53.1328 6.57243Z" fill="#D1D1D1"/>
<path d="M58.189 10.3035C58.2119 10.6892 58.3816 11.0515 58.663 11.3165C58.9445 11.5814 59.3165 11.7289 59.7027 11.7289C60.0888 11.7289 60.4608 11.5814 60.7423 11.3165C61.0237 11.0515 61.1928 10.6892 61.2163 10.3035V6.83982C61.2163 6.71982 61.2545 6.68164 61.3745 6.68164H61.6254C61.7454 6.68164 61.7836 6.71982 61.7836 6.83982V10.298C61.7836 11.5362 61.0527 12.2835 59.7054 12.2835C58.3581 12.2835 57.6272 11.5362 57.6272 10.298V6.83982C57.6272 6.71982 57.6654 6.68164 57.7799 6.68164H58.0363C58.1508 6.68164 58.189 6.71982 58.189 6.83982V10.3035Z" fill="#D1D1D1"/>
<path d="M69.311 6.68159C69.431 6.68159 69.4692 6.71978 69.4692 6.83978V12.0107C69.4692 12.1307 69.431 12.1689 69.311 12.1689H69.0819C68.9674 12.1689 68.9292 12.1307 68.9292 12.0107V8.86341C68.9292 8.4055 68.9603 7.94809 69.0219 7.49432H68.9892C68.819 7.90925 68.6199 8.31201 68.3946 8.69978L67.2219 10.767C67.2077 10.8029 67.1826 10.8336 67.1504 10.855C67.1183 10.8764 67.0806 10.8876 67.0419 10.887H66.8892C66.8499 10.8873 66.8117 10.876 66.7784 10.8547C66.7457 10.8334 66.7195 10.8029 66.7037 10.767L65.5146 8.67796C65.3035 8.29576 65.1214 7.89829 64.9692 7.48887H64.9364C64.9921 7.94678 65.0215 8.40758 65.0237 8.86887V12.0107C65.0237 12.1307 64.9855 12.1689 64.8655 12.1689H64.6528C64.5328 12.1689 64.4946 12.1307 64.4946 12.0107V6.83978C64.4946 6.71978 64.5328 6.68159 64.6528 6.68159H64.8492C64.8939 6.67745 64.9392 6.68721 64.9779 6.70969C65.0172 6.73216 65.0483 6.76619 65.0674 6.80705L66.9764 10.1998L68.8746 6.83978C68.9346 6.72523 68.9674 6.70887 69.0874 6.70887L69.311 6.68159Z" fill="#D1D1D1"/>
<path d="M6.94358 11.3404V15.284C6.94358 15.4352 6.88353 15.5802 6.77662 15.687C6.66976 15.7939 6.52478 15.854 6.37358 15.854C6.22244 15.854 6.07745 15.7939 5.97054 15.687C5.86364 15.5802 5.80358 15.4352 5.80358 15.284V11.3458C5.96231 11.4617 6.15256 11.5264 6.34904 11.5313C6.56318 11.5374 6.77302 11.47 6.94358 11.3404ZM11.7981 10.2004C11.6535 10.2004 11.5147 10.2578 11.4124 10.3601C11.3102 10.4624 11.2527 10.6012 11.2527 10.7458V11.4331C11.2527 11.5843 11.3127 11.7293 11.4196 11.8361C11.5265 11.943 11.6715 12.0031 11.8227 12.0031C11.9739 12.0031 12.1189 11.943 12.2257 11.8361C12.3326 11.7293 12.3927 11.5843 12.3927 11.4331V10.7731C12.3969 10.6949 12.3843 10.6166 12.3556 10.5438C12.3269 10.4709 12.2829 10.405 12.2264 10.3507C12.17 10.2964 12.1025 10.2548 12.0287 10.2288C11.9548 10.2029 11.8761 10.1932 11.7981 10.2004ZM4.5654 12.8349C4.36913 12.829 4.17912 12.7644 4.01994 12.6494V16.604C4.01994 16.7559 4.08028 16.9016 4.18769 17.009C4.2951 17.1164 4.44077 17.1767 4.59267 17.1767C4.74457 17.1767 4.89024 17.1164 4.99765 17.009C5.10506 16.9016 5.1654 16.7559 5.1654 16.604V12.6767C4.98728 12.7919 4.77712 12.8473 4.5654 12.8349ZM10.0199 9.01672C9.94604 9.01301 9.87218 9.02441 9.8028 9.05015C9.73347 9.0759 9.67009 9.1155 9.61647 9.1665C9.56291 9.21756 9.52031 9.27892 9.49118 9.34694C9.46211 9.41496 9.44711 9.48821 9.44722 9.56217V12.6004C9.44722 12.7523 9.50754 12.898 9.61494 13.0054C9.7224 13.1128 9.86804 13.1731 10.0199 13.1731C10.1719 13.1731 10.3175 13.1128 10.4249 13.0054C10.5323 12.898 10.5927 12.7523 10.5927 12.6004V9.60036C10.597 9.52165 10.5843 9.44294 10.5553 9.36963C10.5262 9.29632 10.4817 9.23016 10.4247 9.17572C10.3676 9.12128 10.2995 9.07983 10.2249 9.0543C10.1504 9.02872 10.0711 9.01961 9.99267 9.02763L10.0199 9.01672ZM8.20904 10.184C8.00356 10.1826 7.8036 10.1178 7.63631 9.99854V13.964C7.63631 14.1159 7.69664 14.2616 7.80404 14.369C7.91149 14.4764 8.05713 14.5367 8.20904 14.5367C8.36094 14.5367 8.50658 14.4764 8.61404 14.369C8.72144 14.2616 8.78176 14.1159 8.78176 13.964V10.004C8.60875 10.1329 8.39749 10.2001 8.18176 10.1949L8.20904 10.184ZM3.32722 13.2222V2.14399C3.32578 2.00895 3.27113 1.87994 3.17513 1.78496C3.07913 1.68998 2.94953 1.63671 2.81449 1.63672H2.69449C2.55945 1.63671 2.42985 1.68998 2.33385 1.78496C2.23785 1.87994 2.1832 2.00895 2.18176 2.14399V13.2222C2.18176 13.3582 2.23578 13.4886 2.33194 13.5847C2.42809 13.6809 2.55851 13.7349 2.69449 13.7349H2.81449C2.95048 13.7349 3.08089 13.6809 3.17704 13.5847C3.2732 13.4886 3.32722 13.3582 3.32722 13.2222ZM4.6254 12.4149H4.5054C4.36942 12.4149 4.239 12.3609 4.14285 12.2647C4.04669 12.1686 3.99267 12.0382 3.99267 11.9022V3.46399C3.99411 3.32896 4.04876 3.19994 4.14476 3.10496C4.24076 3.00998 4.37036 2.95671 4.5054 2.95672H4.6254C4.76044 2.95671 4.89004 3.00998 4.98604 3.10496C5.08204 3.19994 5.13669 3.32896 5.13813 3.46399V11.9131C5.13813 12.0491 5.0841 12.1795 4.98795 12.2756C4.8918 12.3718 4.76138 12.4258 4.6254 12.4258V12.4149ZM6.43085 11.1167H6.3054C6.17089 11.1167 6.04184 11.0633 5.94671 10.9681C5.85158 10.873 5.79813 10.744 5.79813 10.6094V4.77308C5.79742 4.70601 5.81002 4.63946 5.83516 4.57728C5.86031 4.5151 5.89756 4.45854 5.94474 4.41086C5.99193 4.36317 6.04811 4.32532 6.11002 4.29949C6.17193 4.27365 6.23831 4.26035 6.3054 4.26036H6.43085C6.56591 4.2618 6.69491 4.31644 6.78987 4.41244C6.88489 4.50844 6.93813 4.63804 6.93813 4.77308V10.6094C6.93813 10.744 6.88467 10.873 6.78955 10.9681C6.69442 11.0633 6.56542 11.1167 6.43085 11.1167ZM8.23631 9.78036H8.12176C7.98671 9.78036 7.85711 9.72712 7.76111 9.6321C7.66511 9.53714 7.61045 9.40814 7.60904 9.27308V6.13126C7.60456 6.06123 7.61449 5.99103 7.63827 5.92497C7.662 5.85897 7.69909 5.79848 7.74714 5.74737C7.7952 5.69621 7.85324 5.65552 7.91771 5.6277C7.98213 5.59994 8.05156 5.58565 8.12176 5.58581H8.24176C8.37774 5.58581 8.50816 5.63981 8.60433 5.73597C8.70049 5.83214 8.75449 5.96256 8.75449 6.09854V9.26217C8.7552 9.32997 8.74249 9.39723 8.71702 9.46006C8.6916 9.5229 8.65396 9.58006 8.60624 9.62828C8.55856 9.67645 8.50184 9.71468 8.43922 9.74081C8.37665 9.76694 8.30956 9.78036 8.24176 9.78036H8.23631ZM10.0472 8.60763H9.92722C9.79124 8.60763 9.66082 8.55363 9.56465 8.45746C9.46849 8.3613 9.41449 8.23088 9.41449 8.0949V7.28217C9.41591 7.14712 9.47056 7.01812 9.56656 6.92316C9.66256 6.82814 9.79216 6.7749 9.92722 6.7749H10.0472C10.1823 6.7749 10.3119 6.82814 10.4079 6.92316C10.5039 7.01812 10.5585 7.14712 10.5599 7.28217V8.0949C10.5599 8.22996 10.5067 8.35956 10.4117 8.45555C10.3167 8.55156 10.1877 8.60621 10.0527 8.60763H10.0472Z" fill="#D1D1D1"/>
</svg>
