<svg width="25" height="24" viewBox="0 0 25 24" fill="none" xmlns="http://www.w3.org/2000/svg">
<path fill-rule="evenodd" clip-rule="evenodd" d="M17.1589 2C20.4889 2 22.9999 4.717 22.9999 8.32V15.188C22.9999 17.032 22.3479 18.698 21.1629 19.88C20.0999 20.939 18.7209 21.5 17.1749 21.5H7.32191C5.77891 21.5 4.40091 20.94 3.33691 19.88C2.15191 18.698 1.49991 17.032 1.49991 15.188V8.32C1.49991 4.717 4.01091 2 7.34091 2H17.1589ZM17.1589 3.5H7.34091C4.82591 3.5 2.99991 5.527 2.99991 8.32V15.188C2.99991 16.631 3.49591 17.92 4.39591 18.817C5.17191 19.592 6.18491 20 7.32491 20H17.1589C17.1609 19.998 17.1689 20 17.1749 20C18.3159 20 19.3279 19.592 20.1039 18.817C21.0049 17.92 21.4999 16.631 21.4999 15.188V8.32C21.4999 5.527 19.6739 3.5 17.1589 3.5ZM18.7349 8.1288C18.9959 8.4498 18.9469 8.9218 18.6259 9.1838L14.1819 12.7958C13.6199 13.2418 12.9479 13.4648 12.2769 13.4648C11.6079 13.4648 10.9409 13.2438 10.3829 12.8018L5.89791 9.1858C5.57491 8.9258 5.52491 8.4528 5.78391 8.1308C6.04491 7.8098 6.51691 7.7588 6.83891 8.0178L11.3199 11.6298C11.8829 12.0758 12.6759 12.0758 13.2429 11.6258L17.6789 8.0198C18.0009 7.7568 18.4729 7.8068 18.7349 8.1288Z" fill="white"/>
</svg>
