<svg width="79" height="20" viewBox="0 0 79 20" fill="none" xmlns="http://www.w3.org/2000/svg">
<g clip-path="url(#clip0_6634_264)">
<path d="M0.453735 14.8327L0.453737 4.94434L5.30419 7.69111V12.1134L9.18459 14.3383L13.0649 12.1134V7.69111L17.9154 4.94434V14.8327L9.18459 19.7768L0.453735 14.8327Z" fill="#D1D1D1"/>
<path fill-rule="evenodd" clip-rule="evenodd" d="M2.87897 6.31758L0.453735 4.94418L9.18459 0L17.9154 4.94418L15.4902 6.31758V13.5965L9.18459 17.3046L2.87897 13.5965L2.87897 6.31758ZM15.2275 6.46637L13.0649 7.69095V7.66347L9.18459 5.43858L5.30419 7.66347V7.69095L3.1417 6.46637V13.4444L9.18459 16.998L15.2275 13.4444V6.46637Z" fill="#D1D1D1"/>
<path d="M22.5641 14.0513V5.74512H24.1007V12.6274H27.8259V14.0513H22.5641Z" fill="#D1D1D1"/>
<path d="M31.1435 14.2168C30.5692 14.2168 30.0531 14.0982 29.5953 13.8608C29.1374 13.6235 28.7765 13.2794 28.5126 12.8285C28.2487 12.3776 28.1168 11.8357 28.1168 11.2029V11.013C28.1168 10.3801 28.2487 9.83823 28.5126 9.38734C28.7765 8.93644 29.1374 8.59234 29.5953 8.35502C30.0531 8.11766 30.5692 7.99902 31.1435 7.99902C31.7178 7.99902 32.2339 8.11766 32.6918 8.35502C33.1497 8.59234 33.5106 8.93644 33.7744 9.38734C34.0383 9.83823 34.1702 10.3801 34.1702 11.013V11.2029C34.1702 11.8357 34.0383 12.3776 33.7744 12.8285C33.5106 13.2794 33.1497 13.6235 32.6918 13.8608C32.2339 14.0982 31.7178 14.2168 31.1435 14.2168ZM31.1435 12.8878C31.5936 12.8878 31.9662 12.7415 32.2611 12.4488C32.556 12.1482 32.7034 11.721 32.7034 11.1672V11.0486C32.7034 10.4949 32.556 10.0716 32.2611 9.77892C31.9739 9.47834 31.6014 9.32802 31.1435 9.32802C30.6934 9.32802 30.3209 9.47834 30.026 9.77892C29.7311 10.0716 29.5836 10.4949 29.5836 11.0486V11.1672C29.5836 11.721 29.7311 12.1482 30.026 12.4488C30.3209 12.7415 30.6934 12.8878 31.1435 12.8878Z" fill="#D1D1D1"/>
<path d="M34.7209 11.1317V10.9418C34.7209 10.3248 34.8412 9.79871 35.0818 9.3636C35.3224 8.9206 35.6406 8.58439 36.0364 8.35502C36.4399 8.11766 36.8784 7.99902 37.3518 7.99902C37.8796 7.99902 38.2792 8.09397 38.5508 8.28381C38.8225 8.47365 39.0204 8.67144 39.1445 8.87713H39.3541V8.16513H40.7976V15.0949C40.7976 15.4983 40.6812 15.8187 40.4483 16.0561C40.2155 16.3013 39.9051 16.4239 39.5171 16.4239H35.6522V15.1187H39.0049C39.2221 15.1187 39.3308 15 39.3308 14.7627V13.2319H39.1212C39.0436 13.3585 38.935 13.489 38.7953 13.6235C38.6556 13.7501 38.4694 13.8569 38.2366 13.9439C38.0037 14.0309 37.7088 14.0744 37.3518 14.0744C36.8784 14.0744 36.4399 13.9597 36.0364 13.7303C35.6406 13.493 35.3224 13.1568 35.0818 12.7217C34.8412 12.2787 34.7209 11.7487 34.7209 11.1317ZM37.7709 12.7692C38.221 12.7692 38.5974 12.6228 38.9001 12.3301C39.2028 12.0374 39.3541 11.6261 39.3541 11.0961V10.9774C39.3541 10.4394 39.2028 10.0281 38.9001 9.74334C38.6052 9.45066 38.2288 9.30429 37.7709 9.30429C37.3208 9.30429 36.9444 9.45066 36.6417 9.74334C36.3391 10.0281 36.1877 10.4394 36.1877 10.9774V11.0961C36.1877 11.6261 36.3391 12.0374 36.6417 12.3301C36.9444 12.6228 37.3208 12.7692 37.7709 12.7692Z" fill="#D1D1D1"/>
<path d="M44.6473 14.2168C44.073 14.2168 43.5569 14.0982 43.099 13.8608C42.6411 13.6235 42.2802 13.2794 42.0164 12.8285C41.7525 12.3776 41.6206 11.8357 41.6206 11.2029V11.013C41.6206 10.3801 41.7525 9.83823 42.0164 9.38734C42.2802 8.93644 42.6411 8.59234 43.099 8.35502C43.5569 8.11766 44.073 7.99902 44.6473 7.99902C45.2216 7.99902 45.7376 8.11766 46.1955 8.35502C46.6534 8.59234 47.0143 8.93644 47.2781 9.38734C47.542 9.83823 47.674 10.3801 47.674 11.013V11.2029C47.674 11.8357 47.542 12.3776 47.2781 12.8285C47.0143 13.2794 46.6534 13.6235 46.1955 13.8608C45.7376 14.0982 45.2216 14.2168 44.6473 14.2168ZM44.6473 12.8878C45.0974 12.8878 45.4699 12.7415 45.7648 12.4488C46.0597 12.1482 46.2072 11.721 46.2072 11.1672V11.0486C46.2072 10.4949 46.0597 10.0716 45.7648 9.77892C45.4777 9.47834 45.1052 9.32802 44.6473 9.32802C44.1971 9.32802 43.8247 9.47834 43.5297 9.77892C43.2348 10.0716 43.0874 10.4949 43.0874 11.0486V11.1672C43.0874 11.721 43.2348 12.1482 43.5297 12.4488C43.8247 12.7415 44.1971 12.8878 44.6473 12.8878Z" fill="#D1D1D1"/>
<path d="M48.504 14.0515V8.16589H49.9707V14.0515H48.504ZM49.2373 7.47768C48.9735 7.47768 48.7484 7.39068 48.5622 7.21663C48.3837 7.04258 48.2944 6.81315 48.2944 6.52842C48.2944 6.24363 48.3837 6.01421 48.5622 5.84015C48.7484 5.66615 48.9735 5.5791 49.2373 5.5791C49.509 5.5791 49.734 5.66615 49.9125 5.84015C50.091 6.01421 50.1803 6.24363 50.1803 6.52842C50.1803 6.81315 50.091 7.04258 49.9125 7.21663C49.734 7.39068 49.509 7.47768 49.2373 7.47768Z" fill="#D1D1D1"/>
<path d="M51.0723 16.4239V8.16513H52.5158V8.87713H52.7255C52.8571 8.64771 53.0627 8.44597 53.3425 8.27192C53.6218 8.08997 54.0215 7.99902 54.5414 7.99902C55.0072 7.99902 55.4378 8.11766 55.8333 8.35502C56.2294 8.58439 56.5474 8.92455 56.788 9.3755C57.0287 9.82639 57.149 10.3722 57.149 11.013V11.2029C57.149 11.8436 57.0287 12.3894 56.788 12.8403C56.5474 13.2913 56.2294 13.6354 55.8333 13.8727C55.4378 14.1021 55.0072 14.2168 54.5414 14.2168C54.1919 14.2168 53.8971 14.1733 53.6564 14.0863C53.4236 14.0072 53.2336 13.9043 53.0864 13.7778C52.9465 13.6433 52.8339 13.5088 52.7487 13.3743H52.5391V16.4239H51.0723ZM54.0989 12.9116C54.5569 12.9116 54.9334 12.7652 55.2282 12.4725C55.5308 12.1719 55.682 11.7368 55.682 11.1672V11.0486C55.682 10.479 55.5308 10.0479 55.2282 9.75518C54.9256 9.4546 54.5492 9.30429 54.0989 9.30429C53.6487 9.30429 53.2723 9.4546 52.9697 9.75518C52.6671 10.0479 52.5158 10.479 52.5158 11.0486V11.1672C52.5158 11.7368 52.6671 12.1719 52.9697 12.4725C53.2723 12.7652 53.6487 12.9116 54.0989 12.9116Z" fill="#D1D1D1"/>
<path d="M60.37 14.2168C59.6171 14.2168 59.0001 14.0507 58.5189 13.7184C58.0382 13.3862 57.747 12.9115 57.6458 12.2945L58.9965 11.9385C59.0507 12.2154 59.14 12.433 59.264 12.5912C59.3961 12.7494 59.5552 12.8641 59.7416 12.9353C59.9352 12.9985 60.1448 13.0302 60.37 13.0302C60.7113 13.0302 60.9638 12.9709 61.1269 12.8522C61.2896 12.7257 61.3711 12.5714 61.3711 12.3894C61.3711 12.2075 61.2937 12.0691 61.1383 11.9741C60.9834 11.8713 60.735 11.7882 60.3932 11.725L60.0674 11.6656C59.6636 11.5865 59.2949 11.4797 58.9614 11.3452C58.6278 11.2029 58.3599 11.009 58.158 10.7638C57.9566 10.5185 57.8554 10.2021 57.8554 9.8145C57.8554 9.22913 58.065 8.78218 58.4843 8.47365C58.903 8.15723 59.4545 7.99902 60.1371 7.99902C60.7815 7.99902 61.3169 8.14539 61.7434 8.43808C62.1704 8.73076 62.4498 9.11444 62.582 9.58908L61.2199 10.0162C61.1579 9.71565 61.0298 9.50202 60.8357 9.3755C60.6493 9.24892 60.4164 9.1856 60.1371 9.1856C59.8578 9.1856 59.6445 9.23702 59.4968 9.33987C59.3497 9.43481 59.2758 9.56929 59.2758 9.74334C59.2758 9.93318 59.3533 10.0755 59.5087 10.1705C59.6636 10.2575 59.8732 10.3248 60.1371 10.3722L60.4629 10.4315C60.8977 10.5107 61.2896 10.6174 61.6391 10.7519C61.9959 10.8785 62.2753 11.0644 62.4771 11.3097C62.6868 11.547 62.7916 11.8713 62.7916 12.2827C62.7916 12.8997 62.5701 13.3783 62.1276 13.7184C61.6933 14.0507 61.1073 14.2168 60.37 14.2168Z" fill="#D1D1D1"/>
<path d="M65.7528 14.1455C65.3031 14.1455 64.9071 14.0427 64.5658 13.837C64.2322 13.6234 63.972 13.3307 63.7856 12.9589C63.5997 12.5871 63.5062 12.1599 63.5062 11.6774V8.16504H64.9731V11.5587C64.9731 12.0017 65.078 12.334 65.2876 12.5555C65.5045 12.777 65.8112 12.8877 66.2072 12.8877C66.6569 12.8877 67.0065 12.7374 67.2549 12.4368C67.5032 12.1283 67.6271 11.7011 67.6271 11.1553V8.16504H69.0941V14.0506H67.6504V13.2793H67.4413C67.3478 13.4771 67.1733 13.6709 66.9172 13.8607C66.6611 14.0506 66.2728 14.1455 65.7528 14.1455Z" fill="#D1D1D1"/>
<path d="M70.2026 14.0508V8.16521H71.6458V8.806H71.8554C71.9561 8.60821 72.1234 8.43815 72.3558 8.29573C72.5886 8.14547 72.8953 8.07031 73.2759 8.07031C73.6869 8.07031 74.0168 8.15337 74.2652 8.31947C74.5136 8.47768 74.7036 8.68731 74.8358 8.94836H75.0449C75.1771 8.69526 75.3635 8.48563 75.6041 8.31947C75.8447 8.15337 76.186 8.07031 76.6285 8.07031C76.9853 8.07031 77.3075 8.14942 77.5946 8.30763C77.8894 8.45789 78.1223 8.69126 78.2932 9.00773C78.4713 9.31621 78.5606 9.70779 78.5606 10.1825V14.0508H77.0937V10.2893C77.0937 9.96489 77.0126 9.72363 76.8495 9.56542C76.6863 9.39931 76.4576 9.31621 76.1627 9.31621C75.8292 9.31621 75.569 9.427 75.3826 9.64847C75.2044 9.86205 75.1151 10.1706 75.1151 10.574V14.0508H73.6482V10.2893C73.6482 9.96489 73.5666 9.72363 73.4039 9.56542C73.2408 9.39931 73.012 9.31621 72.7167 9.31621C72.3831 9.31621 72.1234 9.427 71.937 9.64847C71.7584 9.86205 71.669 10.1706 71.669 10.574V14.0508H70.2026Z" fill="#D1D1D1"/>
</g>
<defs>
<clipPath id="clip0_6634_264">
<rect width="79" height="20" fill="white"/>
</clipPath>
</defs>
</svg>
