<svg width="20" height="21" viewBox="0 0 20 21" fill="none" xmlns="http://www.w3.org/2000/svg">
<path fill-rule="evenodd" clip-rule="evenodd" d="M10.208 1.92578C13.9988 1.92578 17.083 5.03328 17.083 8.85328C17.083 13.5491 11.703 18.1758 10.208 18.1758C8.71301 18.1758 3.33301 13.5491 3.33301 8.85328C3.33301 5.03328 6.41717 1.92578 10.208 1.92578ZM10.208 3.17578C7.10634 3.17578 4.58301 5.72328 4.58301 8.85328C4.58301 12.8358 9.26967 16.7158 10.208 16.9224C11.1463 16.7149 15.833 12.8349 15.833 8.85328C15.833 5.72328 13.3097 3.17578 10.208 3.17578ZM10.2088 6.09245C11.7022 6.09245 12.9172 7.30745 12.9172 8.80161C12.9172 10.2949 11.7022 11.5091 10.2088 11.5091C8.71551 11.5091 7.50051 10.2949 7.50051 8.80161C7.50051 7.30745 8.71551 6.09245 10.2088 6.09245ZM10.2088 7.34245C9.40467 7.34245 8.75051 7.99661 8.75051 8.80161C8.75051 9.60578 9.40467 10.2591 10.2088 10.2591C11.013 10.2591 11.6672 9.60578 11.6672 8.80161C11.6672 7.99661 11.013 7.34245 10.2088 7.34245Z" fill="#B0B0B2"/>
</svg>
