<svg width="72" height="19" viewBox="0 0 72 19" fill="none" xmlns="http://www.w3.org/2000/svg">
<path d="M21.4084 5.84705H23.1504V12.8903H21.4084V5.84705ZM23.8414 10.2309C23.8414 8.48898 24.9097 7.44963 26.5588 7.44963C28.2078 7.44963 29.2762 8.48898 29.2762 10.2309C29.2762 11.9729 28.231 13.018 26.5588 13.018C24.8865 13.018 23.8414 12.0019 23.8414 10.2309ZM27.5284 10.2309C27.5284 9.27285 27.151 8.70963 26.5588 8.70963C25.9665 8.70963 25.5949 9.29027 25.5949 10.2309C25.5949 11.1716 25.9607 11.7406 26.5588 11.7406C27.1568 11.7406 27.5284 11.2064 27.5284 10.2367V10.2309ZM29.9323 13.2329H31.6046C31.6842 13.4097 31.8187 13.556 31.9882 13.6502C32.1577 13.7443 32.3531 13.7813 32.5452 13.7554C33.2072 13.7554 33.5555 13.3954 33.5555 12.8729V11.8974H33.5207C33.3819 12.1963 33.1567 12.4468 32.8742 12.6166C32.5916 12.7863 32.2647 12.8675 31.9355 12.8496C30.6639 12.8496 29.822 11.8799 29.822 10.2135C29.822 8.54705 30.6233 7.49608 31.9588 7.49608C32.2982 7.48278 32.6336 7.57354 32.92 7.75615C33.2065 7.93882 33.4302 8.20464 33.5613 8.51801V7.54834H35.3033V12.8322C35.3033 14.1038 34.1826 14.8935 32.5278 14.8935C30.9891 14.8935 30.031 14.2025 29.9323 13.2387V13.2329ZM33.5613 10.2251C33.5613 9.37737 33.1723 8.84317 32.5568 8.84317C31.9414 8.84317 31.5639 9.37156 31.5639 10.2251C31.5639 11.0787 31.9355 11.5606 32.5568 11.5606C33.1781 11.5606 33.5613 11.0903 33.5613 10.2309V10.2251ZM35.9594 10.2251C35.9594 8.48317 37.0278 7.44382 38.6768 7.44382C40.3259 7.44382 41.4001 8.48317 41.4001 10.2251C41.4001 11.967 40.3549 13.0122 38.6768 13.0122C36.9988 13.0122 35.9594 12.0019 35.9594 10.2309V10.2251ZM39.6465 10.2251C39.6465 9.26705 39.2691 8.70382 38.6768 8.70382C38.0846 8.70382 37.742 9.29027 37.742 10.2367C37.742 11.1832 38.1078 11.7464 38.7001 11.7464C39.2923 11.7464 39.6465 11.2064 39.6465 10.2367V10.2251ZM42.062 6.28253C42.0574 6.10665 42.1052 5.93339 42.1992 5.78469C42.2933 5.63599 42.4293 5.51856 42.5902 5.44728C42.751 5.376 42.9294 5.35408 43.1027 5.3843C43.276 5.41453 43.4364 5.49553 43.5637 5.61705C43.6909 5.73856 43.7792 5.89512 43.8173 6.06688C43.8555 6.23863 43.8418 6.41782 43.7779 6.58179C43.7141 6.74571 43.603 6.88704 43.4588 6.98778C43.3146 7.08852 43.1437 7.14421 42.9678 7.14769C42.8512 7.1557 42.7342 7.1395 42.6242 7.10014C42.5141 7.06077 42.4134 6.9991 42.3283 6.91892C42.2433 6.83879 42.1757 6.74188 42.1299 6.63434C42.084 6.52687 42.0609 6.41103 42.062 6.29414V6.28253ZM42.062 7.55995H43.8039V12.8903H42.062V7.55995ZM50.1272 10.2251C50.1272 11.967 49.3549 12.9599 48.031 12.9599C47.6916 12.9817 47.3536 12.8987 47.0628 12.7222C46.772 12.5457 46.5425 12.2841 46.4052 11.9729H46.3704V14.5974H44.6284V7.54834H46.3704V8.50059H46.4052C46.5361 8.1842 46.7613 7.91583 47.0501 7.73194C47.3389 7.54805 47.6774 7.45758 48.0194 7.47285C49.3549 7.49608 50.1504 8.49479 50.1504 10.2367L50.1272 10.2251ZM48.3852 10.2251C48.3852 9.37737 47.9962 8.83737 47.3865 8.83737C46.7768 8.83737 46.3878 9.38317 46.382 10.2251C46.3762 11.067 46.7768 11.607 47.3865 11.607C47.9962 11.607 48.3852 11.0787 48.3852 10.2367V10.2251ZM53.1175 7.43801C54.5633 7.43801 55.4401 8.12317 55.4807 9.22059H53.8955C53.8955 8.84317 53.582 8.60511 53.1001 8.60511C52.6181 8.60511 52.4033 8.79092 52.4033 9.06382C52.4033 9.33672 52.5949 9.42382 52.9839 9.50511L54.0988 9.73156C55.1614 9.95801 55.6143 10.3877 55.6143 11.1948C55.6143 12.298 54.6097 13.0064 53.1291 13.0064C51.6484 13.0064 50.6788 12.298 50.6033 11.2122H52.2814C52.3336 11.607 52.6472 11.8393 53.1581 11.8393C53.6691 11.8393 53.9014 11.6709 53.9014 11.3922C53.9014 11.1135 53.7388 11.0554 53.3207 10.9683L52.3162 10.7535C51.2768 10.5387 50.731 9.98705 50.731 9.17414C50.7426 8.12898 51.6775 7.44963 53.1175 7.44963V7.43801ZM61.4265 12.8787H59.7484V11.8858H59.7136C59.6213 12.2191 59.4181 12.5109 59.137 12.7127C58.856 12.9144 58.5146 13.0139 58.1691 12.9948C57.9044 13.0098 57.6397 12.9679 57.3926 12.8718C57.1455 12.7757 56.922 12.6278 56.737 12.4378C56.5521 12.248 56.41 12.0205 56.3205 11.771C56.231 11.5215 56.1961 11.2557 56.2181 10.9916V7.54834H57.9601V10.5909C57.9601 11.2238 58.2852 11.5606 58.8252 11.5606C58.9518 11.5608 59.0772 11.5341 59.1928 11.482C59.3077 11.4299 59.4111 11.3537 59.4947 11.2586C59.5777 11.1634 59.6404 11.0515 59.677 10.9304C59.7136 10.8092 59.7246 10.6816 59.7078 10.5561V7.54834H61.4497L61.4265 12.8787ZM62.2684 7.54834H63.9523V8.57608H63.9872C64.0795 8.24714 64.2786 7.9581 64.5527 7.75429C64.8268 7.55048 65.1612 7.4433 65.5026 7.44963C65.8504 7.42181 66.1954 7.52581 66.47 7.74099C66.7441 7.95618 66.9275 8.26671 66.9833 8.61092H67.0181C67.1232 8.26305 67.3415 7.96019 67.6382 7.74994C67.9344 7.53968 68.2926 7.43401 68.6555 7.44963C68.8924 7.44167 69.1282 7.48365 69.3477 7.57284C69.5677 7.66197 69.7657 7.79639 69.9301 7.96721C70.0944 8.1381 70.221 8.34161 70.3017 8.56452C70.3818 8.78743 70.4149 9.02486 70.3975 9.26124V12.8903H68.6555V9.72576C68.6555 9.14511 68.3943 8.87801 67.9065 8.87801C67.7979 8.87708 67.6899 8.8995 67.5906 8.94374C67.4913 8.98799 67.4025 9.05302 67.3305 9.13448C67.2585 9.21595 67.2045 9.31187 67.1726 9.41586C67.1406 9.51992 67.1319 9.62954 67.1459 9.73737V12.8903H65.491V9.70253C65.491 9.16834 65.2297 8.87801 64.7536 8.87801C64.6439 8.87807 64.5347 8.90141 64.4348 8.94653C64.3344 8.9917 64.2444 9.05761 64.1718 9.13988C64.0986 9.22216 64.0441 9.31901 64.011 9.42405C63.9784 9.52903 63.968 9.63976 63.9814 9.74898V12.8903H62.2394L62.2684 7.54834Z" fill="#D1D1D1"/>
<path d="M16.5368 6.16633C16.2413 5.49066 15.8502 4.861 15.3755 4.29665C14.6738 3.43749 13.798 2.73668 12.8059 2.24035C11.8138 1.74403 10.7279 1.46343 9.61953 1.41703C8.5112 1.37063 7.40559 1.55948 6.37547 1.97116C5.34539 2.38283 4.41415 3.00799 3.64307 3.8055C2.87198 4.603 2.27853 5.55476 1.90178 6.59815C1.52503 7.64151 1.37351 8.75287 1.45721 9.859C1.54091 10.9652 1.85791 12.0411 2.38736 13.0158C2.91682 13.9907 3.64672 14.8423 4.52902 15.5147C5.09515 15.9548 5.72071 16.3125 6.38708 16.5773C7.32134 16.9602 8.32127 17.1574 9.33095 17.1579C11.4151 17.1534 13.4124 16.3226 14.8851 14.8477C16.3577 13.3729 17.1856 11.3744 17.1871 9.2902C17.1886 8.21513 16.9672 7.15145 16.5368 6.16633ZM9.32515 3.01342C10.2319 3.01332 11.1276 3.2115 11.9497 3.59406C11.7492 3.68068 11.5384 3.74117 11.3226 3.77407C10.6122 3.87689 9.95416 4.20669 9.44662 4.71423C8.93907 5.22177 8.60927 5.87984 8.50644 6.5902C8.46132 6.98858 8.2801 7.3592 7.99344 7.63954C7.70677 7.91987 7.3322 8.09267 6.93289 8.12891C6.22253 8.23174 5.56446 8.56154 5.05693 9.06909C4.54939 9.57663 4.21959 10.2347 4.11676 10.945C4.08195 11.3238 3.92033 11.6798 3.65805 11.9554C3.20553 10.9992 3.00224 9.94406 3.06711 8.88822C3.13198 7.83237 3.4629 6.81009 4.02907 5.91647C4.59523 5.02291 5.37826 4.28707 6.30527 3.77746C7.23227 3.26784 8.27313 3.00102 9.33095 3.0018L9.32515 3.01342ZM4.52322 13.3547C4.59289 13.2908 4.66257 13.2328 4.73225 13.1631C5.24882 12.6623 5.5804 12.0012 5.67289 11.2876C5.71039 10.8865 5.88947 10.5119 6.17805 10.2308C6.45577 9.9418 6.82953 9.76418 7.22902 9.73149C7.93938 9.62865 8.59742 9.29885 9.10497 8.79131C9.61251 8.28376 9.94231 7.62572 10.0451 6.91536C10.0703 6.49584 10.2503 6.1006 10.5503 5.80633C10.8349 5.52288 11.2122 5.35174 11.6129 5.32438C12.2655 5.2346 12.8741 4.94448 13.3548 4.49407C13.9022 4.94817 14.3659 5.49446 14.7251 6.10826C14.7031 6.13805 14.6778 6.16534 14.6497 6.18955C14.3725 6.48115 13.9992 6.66266 13.5987 6.70052C12.8876 6.80155 12.2285 7.13078 11.7207 7.63861C11.2128 8.1465 10.8836 8.80553 10.7826 9.51665C10.7416 9.91636 10.5638 10.2897 10.2791 10.5732C9.99445 10.8569 9.62052 11.0334 9.22063 11.0728C8.50818 11.1748 7.84769 11.504 7.33719 12.0113C6.82675 12.5186 6.49351 13.1771 6.38708 13.8889C6.35584 14.1727 6.25835 14.4452 6.10257 14.6844C5.50682 14.3307 4.97327 13.8815 4.52322 13.3547ZM9.32515 15.596C8.73596 15.5966 8.14957 15.5145 7.58321 15.3521C7.77697 14.991 7.90291 14.5974 7.95482 14.1908C7.99553 13.792 8.17256 13.4194 8.45604 13.1359C8.73951 12.8525 9.11211 12.6754 9.51095 12.6347C10.2224 12.533 10.8817 12.2038 11.3904 11.6961C11.8991 11.1885 12.2298 10.5298 12.3329 9.81858C12.3736 9.41974 12.5506 9.04714 12.8341 8.76367C13.1176 8.4802 13.4902 8.30316 13.889 8.26245C14.4244 8.19284 14.9346 7.9935 15.3755 7.68181C15.6203 8.60962 15.6492 9.58116 15.4602 10.5219C15.2712 11.4627 14.8692 12.3477 14.2851 13.109C13.7009 13.8702 12.9502 14.4876 12.0904 14.9137C11.2306 15.3398 10.2847 15.5633 9.32515 15.567V15.596Z" fill="#D1D1D1"/>
</svg>
