<svg width="72" height="21" viewBox="0 0 72 21" fill="none" xmlns="http://www.w3.org/2000/svg">
<path d="M24.0494 13.0912V5.09082H22.7375V13.0912H24.0494Z" fill="#D1D1D1"/>
<path d="M24.8523 10.4238C24.8523 12.0583 25.9491 13.2196 27.6159 13.2196C29.2826 13.2196 30.3795 12.0583 30.3795 10.4238C30.3795 8.78928 29.2826 7.62793 27.6159 7.62793C25.9491 7.62793 24.8523 8.78928 24.8523 10.4238ZM26.1749 10.4238C26.1749 9.46673 26.7449 8.80003 27.6159 8.80003C28.4869 8.80003 29.0568 9.46673 29.0568 10.4238C29.0568 11.3701 28.4869 12.0475 27.6159 12.0475C26.7449 12.0475 26.1749 11.3701 26.1749 10.4238Z" fill="#D1D1D1"/>
<path d="M30.8208 10.3163C30.8208 11.8647 31.8209 12.9831 33.3156 12.9831C34.0898 12.9831 34.7565 12.6712 35.0898 12.1551V13.0583C35.0898 13.9294 34.5414 14.51 33.6274 14.51C32.8102 14.51 32.251 14.1122 32.1757 13.4132H30.8531C31.0251 14.8004 32.0897 15.7036 33.5521 15.7036C35.2726 15.7036 36.3695 14.5745 36.3695 12.8218V7.7785H35.2081L35.1329 8.49896C34.8103 7.9398 34.1436 7.60645 33.3586 7.60645C31.8424 7.60645 30.8208 8.75704 30.8208 10.3163ZM32.1542 10.284C32.1542 9.40224 32.7134 8.75704 33.5414 8.75704C34.4446 8.75704 35.0468 9.41299 35.0468 10.284C35.0468 11.1658 34.4446 11.8432 33.5414 11.8432C32.7241 11.8432 32.1542 11.1765 32.1542 10.284Z" fill="#D1D1D1"/>
<path d="M37.0187 10.4238C37.0187 12.0583 38.1155 13.2196 39.7823 13.2196C41.449 13.2196 42.5458 12.0583 42.5458 10.4238C42.5458 8.78928 41.449 7.62793 39.7823 7.62793C38.1155 7.62793 37.0187 8.78928 37.0187 10.4238ZM38.3413 10.4238C38.3413 9.46673 38.9112 8.80003 39.7823 8.80003C40.6533 8.80003 41.2232 9.46673 41.2232 10.4238C41.2232 11.3701 40.6533 12.0475 39.7823 12.0475C38.9112 12.0475 38.3413 11.3701 38.3413 10.4238Z" fill="#D1D1D1"/>
<path d="M43.9656 6.69301C44.3958 6.69301 44.7506 6.34891 44.7506 5.90802C44.7506 5.47789 44.3958 5.13379 43.9656 5.13379C43.5248 5.13379 43.1914 5.47789 43.1914 5.90802C43.1914 6.34891 43.5248 6.69301 43.9656 6.69301ZM43.3097 13.0912H44.6216V7.77909H43.3097V13.0912Z" fill="#D1D1D1"/>
<path d="M45.7709 15.5531H47.0506V12.3594C47.384 12.9078 48.1044 13.2304 48.9002 13.2304C50.4701 13.2304 51.4057 12.026 51.3842 10.37C51.3519 8.70327 50.3949 7.61719 48.8894 7.61719C48.0829 7.61719 47.3517 7.97205 47.0291 8.58498L46.9538 7.77849H45.7709V15.5531ZM47.1044 10.4345C47.1044 9.4775 47.685 8.8108 48.5991 8.8108C49.5131 8.8108 50.0615 9.48825 50.0615 10.4345C50.0615 11.3808 49.5131 12.0475 48.5991 12.0475C47.685 12.0475 47.1044 11.3916 47.1044 10.4345Z" fill="#D1D1D1"/>
<path d="M51.717 11.4991C51.7601 12.5529 52.5773 13.2304 53.8462 13.2304C55.0936 13.2304 55.9431 12.5637 55.9431 11.5314C55.9431 10.7679 55.4699 10.2517 54.5989 10.0367L53.6634 9.81085C53.2655 9.70332 52.9967 9.56353 52.9967 9.21942C52.9967 8.85381 53.287 8.59573 53.7602 8.59573C54.2548 8.59573 54.5774 8.87532 54.5774 9.33771H55.771C55.728 8.28389 54.943 7.61719 53.7924 7.61719C52.6526 7.61719 51.8031 8.28389 51.8031 9.29469C51.8031 9.9829 52.2009 10.5528 53.2225 10.8217L54.1473 11.0582C54.4914 11.155 54.7064 11.3163 54.7064 11.6174C54.7064 12.0368 54.3086 12.2303 53.8247 12.2303C53.244 12.2303 52.9107 11.9615 52.9107 11.4991H51.717Z" fill="#D1D1D1"/>
<path d="M58.6646 13.2302C59.3851 13.2302 60.0733 12.8969 60.3851 12.4022L60.4711 13.0904H61.697V7.77832H60.3851V10.5634C60.3851 11.5204 60.0195 12.0581 59.1592 12.0581C58.4925 12.0581 58.0302 11.7355 58.0302 10.6387V7.77832H56.7183V11.1011C56.7183 12.37 57.4065 13.2302 58.6646 13.2302Z" fill="#D1D1D1"/>
<path d="M64.1665 13.0906V10.0367C64.1665 9.17641 64.6719 8.76779 65.2956 8.76779C65.9193 8.76779 66.3279 9.16566 66.3279 9.91838V13.0906H67.6075V10.0474C67.6075 9.17641 68.1022 8.76779 68.7259 8.76779C69.3603 8.76779 69.769 9.16566 69.769 9.91838V13.0906H71.0378V9.61729C71.0378 8.39142 70.3604 7.61719 69.07 7.61719C68.2635 7.61719 67.6291 8.0043 67.371 8.62799C67.0806 8.0043 66.5 7.61719 65.6182 7.61719C64.9945 7.61719 64.4353 7.90753 64.1235 8.38067L64.059 7.77849H62.8546V13.0906H64.1665Z" fill="#D1D1D1"/>
<path d="M61.0214 17.8384C61.2168 17.8384 61.3866 17.6739 61.3866 17.4784C61.3866 17.2779 61.2168 17.1133 61.0214 17.1133C60.8208 17.1133 60.6511 17.2779 60.6511 17.4784C60.6511 17.6739 60.8208 17.8384 61.0214 17.8384Z" fill="#D1D1D1"/>
<path d="M61.7638 16.5117C61.7638 17.2985 62.2472 17.8283 62.9518 17.8283C63.5587 17.8283 64.0215 17.4631 64.1192 16.918H63.6564C63.5689 17.2214 63.3015 17.4014 62.9826 17.4014C62.5301 17.4014 62.2421 17.0517 62.2421 16.5065C62.2421 15.9511 62.5455 15.6117 62.9929 15.6117C63.3015 15.6117 63.5689 15.7763 63.6512 16.1003H64.1141C64.0318 15.55 63.5998 15.1797 62.9981 15.1797C62.2678 15.1797 61.7638 15.7197 61.7638 16.5117Z" fill="#D1D1D1"/>
<path d="M64.3016 16.5063C64.3016 17.2623 64.8159 17.828 65.5874 17.828C66.3588 17.828 66.8731 17.2623 66.8731 16.5063C66.8731 15.7503 66.3588 15.1846 65.5874 15.1846C64.8159 15.1846 64.3016 15.7503 64.3016 16.5063ZM64.7902 16.5063C64.7902 15.992 65.1039 15.6166 65.5874 15.6166C66.0708 15.6166 66.3845 15.992 66.3845 16.5063C66.3845 17.0206 66.0708 17.396 65.5874 17.396C65.1039 17.396 64.7902 17.0206 64.7902 16.5063Z" fill="#D1D1D1"/>
<path d="M67.7693 17.7714V16.2594C67.7693 15.8634 68.0162 15.6063 68.3762 15.6063C68.7207 15.6063 68.9367 15.8274 68.9367 16.2234V17.7714H69.4099V16.2646C69.4099 15.8634 69.6516 15.6063 70.0167 15.6063C70.3562 15.6063 70.5722 15.8274 70.5722 16.2234V17.7714H71.0402V16.1206C71.0402 15.5394 70.7007 15.1846 70.1247 15.1846C69.7339 15.1846 69.4305 15.3749 69.307 15.6834C69.1785 15.3749 68.8956 15.1846 68.4842 15.1846C68.1705 15.1846 67.8927 15.3286 67.7539 15.5754L67.7179 15.2566H67.2859V17.7714H67.7693Z" fill="#D1D1D1"/>
<path fill-rule="evenodd" clip-rule="evenodd" d="M0.935059 10.4897L0.935961 10.396L0.937822 10.3023L0.940646 10.2085L0.944428 10.1148L0.949178 10.0211L0.954887 9.92732L0.961563 9.83362L0.969198 9.73993L0.9778 9.64628L0.987366 9.55264L0.997895 9.45913L1.00938 9.36562L1.02184 9.27221L1.03526 9.17889L1.04963 9.08567L1.06497 8.99258L1.08127 8.89954L1.09853 8.80669L1.11675 8.71393L1.13593 8.62131L1.15607 8.52883L1.17715 8.43654L1.1992 8.34444L1.22219 8.25248L1.24615 8.16075L1.27104 8.06916L1.29689 7.9778L1.32369 7.88668L1.35142 7.79579L1.3801 7.70514L1.40973 7.61472L1.44029 7.52453L1.47179 7.43462L1.50421 7.345L1.53758 7.25565L1.57187 7.16659L1.60709 7.07785L1.64323 6.98939L1.68029 6.90131L1.71826 6.81351L1.75716 6.72603L1.79696 6.63893L1.83768 6.5522L1.8793 6.4658L1.92182 6.37978L1.96524 6.29417L2.00955 6.20894L2.05476 6.12408L2.10085 6.03969L2.14782 5.95568L2.19568 5.87208L2.2444 5.78895L2.294 5.70625L2.34447 5.62401L2.3958 5.54224L2.44798 5.46093L2.50103 5.38014L2.55492 5.29978L2.60965 5.21997L2.66523 5.14063L2.72164 5.0618L2.77887 4.98354L2.83693 4.90574L2.89581 4.82855L2.95551 4.75187L3.01602 4.67573L3.07732 4.60018L3.13943 4.5252L3.20233 4.45079L3.26602 4.37697L3.33048 4.30375L3.39572 4.23114L3.46174 4.15914L3.52851 4.08775L3.59604 4.017L3.66433 3.94688L3.73335 3.8774L3.80312 3.80857L3.87362 3.7404L3.94484 3.67289L4.01678 3.60606L4.08944 3.5399L4.1628 3.47444L4.23686 3.40967L4.31162 3.34559L4.38705 3.28223L4.46317 3.21959L4.53995 3.15766L4.6174 3.09647L4.69552 3.03601L4.77425 2.97629L4.85368 2.91732L4.93372 2.85912L5.01437 2.80167L5.09563 2.74499L5.17754 2.68909L5.26001 2.63396L5.34309 2.57963L5.42678 2.52609L5.51108 2.47335L5.59589 2.42142L5.68131 2.37029L5.76724 2.31999L5.85373 2.27051L5.94079 2.22186L6.02836 2.17405L6.11644 2.12707L6.20504 2.08094L6.29415 2.03566L6.38378 1.99124L6.47387 1.94768L6.56448 1.90498L6.65551 1.86316L6.74705 1.82222L6.83901 1.78216L6.93144 1.74298L7.02429 1.7047L7.11757 1.66731L7.21126 1.63082L7.30538 1.59524L7.39986 1.56057L7.49477 1.52681L7.59006 1.49397L7.68571 1.46204L7.7817 1.43105L7.87806 1.40098L7.97479 1.37185L8.07185 1.34366L8.16919 1.31641L8.2669 1.2901L8.3649 1.26473L8.46317 1.24032L8.56173 1.21687L8.66061 1.19437L8.75973 1.17283L8.85908 1.15226L8.95871 1.13265L9.05857 1.11401L9.15867 1.09635L9.25901 1.07965L9.35953 1.06394L9.46023 1.0492L9.56113 1.03545L9.66221 1.02269L9.76347 1.0109L9.86488 1.0001L9.96643 0.990304L10.0681 0.981491L10.1699 0.97367L10.2719 0.966848L10.82 0.935547L10.8513 3.57648L10.8692 3.57628L10.9449 3.57617L11.0206 3.57681L11.0963 3.57819L11.1721 3.58031L11.2478 3.58318L11.3236 3.58679L11.3994 3.59115L11.4752 3.59626L11.5509 3.60211L11.6267 3.60872L11.7024 3.61606L11.7781 3.62416L11.8537 3.633L11.9293 3.64259L12.0048 3.65293L12.0802 3.66401L12.1556 3.67584L12.2309 3.68842L12.3061 3.70174L12.3812 3.71581L12.4562 3.73062L12.5311 3.74618L12.6059 3.76248L12.6805 3.77952L12.755 3.7973L12.8294 3.81582L12.9036 3.83509L12.9776 3.85509L13.0514 3.87583L13.1252 3.8973L13.1987 3.91951L13.272 3.94245L13.3451 3.96613L13.418 3.99053L13.4907 4.01566L13.5632 4.04152L13.6355 4.0681L13.7075 4.09541L13.7793 4.12344L13.8508 4.15218L13.922 4.18165L13.993 4.21182L14.0637 4.24271L14.1342 4.27431L14.2043 4.30662L14.2742 4.33963L14.3438 4.37334L14.413 4.40776L14.4819 4.44287L14.5505 4.47867L14.6188 4.51517L14.6867 4.55235L14.7542 4.59022L14.8215 4.62878L14.8883 4.66801L14.9548 4.70793L15.0209 4.74851L15.0867 4.78974L15.152 4.83168L15.2169 4.87423L15.2814 4.91747L15.3456 4.96138L15.4093 5.00588L15.4726 5.0511L15.5354 5.09691L15.5978 5.14339L15.6598 5.19051L15.7212 5.23825L15.7823 5.28664L15.8428 5.33559L15.903 5.38519L15.9626 5.43545L16.0217 5.48627L16.0804 5.5377L16.1386 5.58974L16.1962 5.64238L16.2533 5.69564L16.3099 5.74945L16.366 5.80382L16.4216 5.8588L16.4766 5.91435L16.5311 5.9705L16.585 6.02716L16.6384 6.08439L16.6912 6.14218L16.7434 6.20052L16.7951 6.25939L16.8462 6.31881L16.8967 6.37875L16.9466 6.4392L16.9959 6.50021L17.0446 6.56169L17.0927 6.62369L17.1402 6.6862L17.1871 6.74922L17.2334 6.81271L17.279 6.87672L17.324 6.94119L17.3684 7.00608L17.4121 7.07149L17.4551 7.13736L17.4975 7.20371L17.5392 7.27047L17.5803 7.33766L17.6207 7.40531L17.6605 7.47338L17.6995 7.54187L17.7379 7.61079L17.7756 7.68012L17.8126 7.74983L17.8488 7.81996L17.8844 7.89047L17.9193 7.96134L17.9535 8.03264L17.9869 8.10427L18.0197 8.17627L18.0517 8.24864L18.083 8.32134L18.1135 8.39442L18.1433 8.46777L18.1724 8.5415L18.2008 8.61552L18.2283 8.6899L18.2552 8.76452L18.2813 8.83951L18.3066 8.91474L18.3312 8.99029L18.355 9.06608L18.378 9.14214L18.4003 9.21849L18.4218 9.29507L18.4425 9.37194L18.4625 9.44903L18.4816 9.52632L18.5 9.60388L18.5176 9.68163L18.5344 9.75961L18.5504 9.83774L18.5656 9.91614L18.58 9.99469L18.5937 10.0734L18.6065 10.1523L18.6185 10.2314L18.6297 10.3106L18.6401 10.3899L18.6497 10.4695L18.6585 10.5491L18.6664 10.6289L18.6736 10.7087L18.6799 10.7887L18.6854 10.8688L18.6901 10.949L18.694 11.0292L18.6971 11.1096L18.6993 11.1899L18.7007 11.2704L18.7013 11.3509L18.7011 11.4315L18.7 11.5121L18.6981 11.5927L18.6954 11.6733L18.6918 11.754L18.6875 11.8346L18.6822 11.9153L18.6762 11.9959L18.6693 12.0765L18.6616 12.1571L18.6531 12.2377L18.6437 12.3181L18.6335 12.3986L18.6225 12.479L18.6106 12.5593L18.598 12.6395L18.5845 12.7197L18.5701 12.7997L18.555 12.8796L18.539 12.9595L18.5221 13.0392L18.5045 13.1188L18.486 13.1983L18.4667 13.2776L18.4466 13.3567L18.4256 13.4357L18.4039 13.5145L18.3813 13.5931L18.3579 13.6716L18.3337 13.7499L18.3087 13.8279L18.2829 13.9058L18.2562 13.9834L18.2287 14.0609L18.2005 14.1381L18.1714 14.215L18.1415 14.2916L18.1108 14.3681L18.0794 14.4442L18.0471 14.5201L18.0141 14.5958L17.9802 14.671L17.9456 14.7461L17.9101 14.8208L17.8739 14.8952L17.8369 14.9693L17.7992 15.043L17.7606 15.1165L17.7213 15.1895L17.6812 15.2622L17.6404 15.3346L17.5988 15.4066L17.5564 15.4782L17.5133 15.5494L17.4695 15.6203L17.4248 15.6907L17.3795 15.7607L17.3334 15.8303L17.2866 15.8995L17.239 15.9683L17.1907 16.0367L17.1417 16.1045L17.092 16.172L17.0416 16.239L16.9904 16.3055L16.9386 16.3716L16.886 16.4371L16.8328 16.5022L16.7788 16.5668L16.7241 16.6309L16.6688 16.6945L16.6128 16.7575L16.5562 16.8201L16.4988 16.8821L16.4409 16.9436L16.3822 17.0046L16.3229 17.0649L16.2629 17.1248L16.2023 17.1841L16.1411 17.2428L16.0793 17.301L16.0168 17.3585L15.9537 17.4155L15.89 17.4718L15.8257 17.5276L15.7607 17.5828L15.6952 17.6374L15.6291 17.6913L15.5625 17.7446L15.4952 17.7973L15.4273 17.8494L15.3589 17.9008L15.29 17.9515L15.2205 18.0016L15.1504 18.0511L15.0798 18.0999L15.0087 18.148L14.9371 18.1954L14.8649 18.2421L14.7923 18.2882L14.7191 18.3336L14.6454 18.3783L14.5712 18.4222L14.4965 18.4655L14.4215 18.5081L14.3458 18.5499L14.2698 18.591L14.1933 18.6314L14.1163 18.671L14.0389 18.71L13.961 18.7481L13.8828 18.7855L13.8041 18.8222L13.725 18.8581L13.6455 18.8933L13.5656 18.9276L13.4853 18.9613L13.4047 18.9941L13.3236 19.0262L13.2422 19.0575L13.1605 19.088L13.0784 19.1177L12.9959 19.1466L12.9131 19.1747L12.8301 19.2021L12.7466 19.2286L12.6629 19.2543L12.5789 19.2792L12.4946 19.3033L12.4099 19.3266L12.3251 19.3491L12.2399 19.3707L12.1545 19.3915L12.0689 19.4115L11.9829 19.4306L11.8968 19.4489L11.8105 19.4664L11.7239 19.4831L11.6371 19.4989L11.5501 19.5138L11.463 19.5279L11.3756 19.5412L11.2881 19.5536L11.2004 19.5651L11.1125 19.5758L11.0245 19.5856L10.9364 19.5946L10.8481 19.6028L10.7597 19.61L10.6712 19.6164L10.5826 19.6219L10.4939 19.6266L10.4051 19.6304L10.3163 19.6333L10.2273 19.6353L10.1383 19.6365L10.0493 19.6368L9.96021 19.6363L9.8711 19.6348L9.78194 19.6325L9.69278 19.6293L9.60362 19.6252L9.51447 19.6203L9.42535 19.6145L9.3362 19.6078L9.24713 19.6002L9.15807 19.5918L9.06905 19.5825L8.98012 19.5723L8.89125 19.5612L8.80241 19.5492L8.71372 19.5364L8.62508 19.5227L8.53658 19.5081L8.44816 19.4927L8.35985 19.4763L8.27172 19.4591L8.18368 19.441L8.09583 19.4221L8.00808 19.4022L7.92055 19.3816L7.83317 19.36L7.74598 19.3376L7.65897 19.3143L7.5722 19.2902L7.48561 19.2652L7.39921 19.2393L7.31309 19.2126L7.2272 19.185L7.14155 19.1565L7.05613 19.1272L6.971 19.0971L6.88614 19.0661L6.80156 19.0343L6.71727 19.0016L6.6333 18.9681L6.54961 18.9337L6.46625 18.8985L6.38321 18.8625L6.30051 18.8257L6.21813 18.788L6.13612 18.7495L6.05449 18.7101L5.97324 18.67L5.8923 18.629L5.8118 18.5873L5.73171 18.5447L5.65195 18.5013L5.57265 18.4572L5.49378 18.4122L5.41533 18.3664L5.3373 18.3199L5.25973 18.2725L5.18259 18.2244L5.10592 18.1755L5.02975 18.1258L4.95401 18.0754L4.87879 18.0242L4.80408 17.9722L4.72983 17.9196L4.65611 17.8661L4.5829 17.8119L4.51022 17.7569L4.43807 17.7012L4.36647 17.6448L4.29541 17.5877L4.22491 17.5298L4.15497 17.4712L4.0856 17.412L4.01681 17.352L3.94861 17.2912L3.88101 17.2298L3.81401 17.1678L3.74761 17.105L3.68183 17.0416L3.61668 16.9775L3.55215 16.9127L3.48826 16.8473L3.42501 16.7812L3.36242 16.7145L3.30049 16.6471L3.23922 16.5791L3.17863 16.5105L3.11871 16.4412L3.05947 16.3713L3.00094 16.3009L2.9431 16.2297L2.88596 16.1581L2.82954 16.0858L2.77383 16.013L2.71885 15.9395L2.6646 15.8655L2.61108 15.7909L2.55831 15.7158L2.50629 15.6401L2.45502 15.5639L2.40451 15.4872L2.35477 15.4099L2.30579 15.3321L2.2576 15.2538L2.21019 15.175L2.16357 15.0957L2.11775 15.0159L2.07272 14.9357L2.0285 14.8549L1.98509 14.7737L1.94248 14.692L1.90071 14.6099L1.85975 14.5273L1.81963 14.4443L1.78035 14.3609L1.7419 14.2771L1.70429 14.1928L1.66754 14.1081L1.63164 14.023L1.59659 13.9376L1.56241 13.8518L1.52909 13.7656L1.49665 13.679L1.46508 13.5921L1.43438 13.5049L1.40457 13.4173L1.37564 13.3294L1.34761 13.2411L1.32046 13.1526L1.29422 13.0638L1.26888 12.9746L1.24443 12.8852L1.2209 12.7955L1.19827 12.7055L1.17656 12.6153L1.15577 12.5248L1.1359 12.4341L1.11694 12.3432L1.09891 12.252L1.08181 12.1606L1.06564 12.069L1.0504 11.9773L1.0361 11.8853L1.02273 11.7931L1.0103 11.7008L0.998821 11.6083L0.988278 11.5157L0.978679 11.423L0.97003 11.3301L0.96233 11.2371L0.955579 11.1439L0.949781 11.0507L0.944938 10.9574L0.941048 10.864L0.938112 10.7705L0.936134 10.677L0.935119 10.5834L0.935059 10.4897ZM9.99495 3.6318L9.97363 1.83171L9.95339 1.83366L9.86044 1.84356L9.76773 1.85435L9.67506 1.86605L9.58277 1.87863L9.49057 1.89212L9.39847 1.90652L9.30665 1.9218L9.21492 1.93799L9.12366 1.95502L9.03225 1.97301L8.94151 1.9918L8.85062 2.01154L8.7602 2.03213L8.66987 2.05362L8.57996 2.07594L8.49029 2.09916L8.40085 2.12324L8.31169 2.1482L8.22295 2.17398L8.13436 2.20066L8.04623 2.22817L7.95833 2.25655L7.8709 2.28571L7.78361 2.3158L7.69679 2.34669L7.61039 2.37839L7.52423 2.41097L7.43853 2.44433L7.3533 2.47851L7.2683 2.51356L7.18372 2.5494L7.09957 2.58607L7.01588 2.6235L6.93261 2.66175L6.84981 2.70077L6.76729 2.74065L6.68538 2.78126L6.60389 2.82266L6.52287 2.86484L6.44231 2.9078L6.36232 2.9515L6.28265 2.996L6.2035 3.04128L6.12504 3.0872L6.04682 3.13402L5.96935 3.18146L5.8924 3.22964L5.81582 3.27861L5.73984 3.32829L5.66443 3.3787L5.58972 3.42971L5.51529 3.48161L5.4416 3.53407L5.36848 3.58726L5.29587 3.64118L5.22392 3.69573L5.15262 3.75094L5.08174 3.80693L5.01166 3.86345L4.94209 3.92071L4.87318 3.9786L4.80487 4.03716L4.73727 4.09628L4.67017 4.15614L4.60383 4.21654L4.53806 4.27764L4.47306 4.33925L4.40865 4.40153L4.34495 4.46437L4.2819 4.52784L4.21947 4.59195L4.15785 4.65651L4.09693 4.72162L4.03655 4.7875L3.977 4.8538L3.91819 4.92056L3.85997 4.98802L3.80261 5.05591L3.74588 5.1244L3.68991 5.19337L3.63468 5.26289L3.58016 5.33288L3.52645 5.40333L3.47344 5.47431L3.42116 5.54584L3.36972 5.6177L3.31897 5.69016L3.26903 5.76301L3.21986 5.83632L3.17143 5.91009L3.12382 5.98429L3.07698 6.05886L3.03094 6.1339L2.98571 6.20931L2.94123 6.28519L2.89755 6.3615L2.85473 6.43808L2.81267 6.51508L2.77142 6.5925L2.73101 6.67025L2.69139 6.74838L2.65262 6.82678L2.61466 6.90556L2.57754 6.98467L2.54123 7.06415L2.50578 7.14386L2.47113 7.22395L2.43732 7.30432L2.40439 7.38492L2.37227 7.46585L2.341 7.54706L2.31059 7.62851L2.28101 7.71023L2.25232 7.79214L2.22445 7.87438L2.19744 7.95681L2.1713 8.03947L2.14603 8.12227L2.1216 8.2054L2.09805 8.28862L2.07536 8.37207L2.05353 8.45567L2.03257 8.53949L2.01248 8.62342L1.99327 8.70753L1.97492 8.79178L1.95745 8.87616L1.94085 8.96065L1.92512 9.04527L1.91028 9.12999L1.8963 9.21485L1.8832 9.29975L1.87098 9.38475L1.85964 9.46984L1.84917 9.55498L1.83958 9.64016L1.83087 9.72544L1.82304 9.81072L1.81609 9.89599L1.81001 9.98136L1.80481 10.0667L1.80048 10.1521L1.79704 10.2374L1.79447 10.3228L1.79277 10.4081L1.79195 10.4934L1.79201 10.5786L1.79293 10.6638L1.79473 10.749L1.7974 10.8341L1.80094 10.9191L1.80536 11.004L1.81063 11.0889L1.81677 11.1736L1.82378 11.2582L1.83165 11.3428L1.84038 11.4272L1.84998 11.5115L1.86043 11.5956L1.87173 11.6796L1.88389 11.7634L1.89691 11.8471L1.91077 11.9306L1.92548 12.0139L1.94103 12.097L1.95743 12.1799L1.97467 12.2626L1.99274 12.3451L2.01165 12.4274L2.0314 12.5095L2.05197 12.5913L2.07337 12.6729L2.09559 12.7541L2.11864 12.8352L2.1425 12.916L2.16718 12.9965L2.19267 13.0767L2.21896 13.1566L2.24606 13.2362L2.27396 13.3155L2.30266 13.3945L2.33214 13.4732L2.36243 13.5515L2.39349 13.6295L2.42533 13.7072L2.45796 13.7845L2.49136 13.8614L2.52553 13.938L2.56046 14.0142L2.59616 14.0899L2.63261 14.1654L2.66981 14.2404L2.70776 14.315L2.74646 14.3892L2.78589 14.4629L2.82606 14.5363L2.86696 14.6092L2.90858 14.6817L2.95092 14.7537L2.99398 14.8252L3.03772 14.8963L3.08221 14.967L3.12736 15.0371L3.17323 15.1068L3.21978 15.176L3.26701 15.2447L3.31491 15.3129L3.3635 15.3806L3.41274 15.4478L3.46266 15.5145L3.51321 15.5806L3.56444 15.6462L3.61628 15.7112L3.66877 15.7757L3.72191 15.8397L3.77565 15.9031L3.83002 15.966L3.885 16.0282L3.9406 16.09L3.99679 16.1511L4.05356 16.2116L4.11094 16.2715L4.16889 16.3309L4.22743 16.3897L4.28653 16.4478L4.3462 16.5054L4.40641 16.5623L4.46718 16.6186L4.5285 16.6743L4.59035 16.7293L4.6527 16.7837L4.71562 16.8374L4.77906 16.8906L4.84293 16.943L4.9074 16.9949L4.97229 17.046L5.0377 17.0965L5.10358 17.1463L5.16997 17.1954L5.23678 17.2439L5.30406 17.2917L5.37175 17.3387L5.43997 17.3852L5.50855 17.4308L5.57766 17.4759L5.64708 17.5202L5.71698 17.5638L5.7873 17.6067L5.85794 17.6488L5.92905 17.6903L6.00049 17.731L6.07235 17.7711L6.14454 17.8103L6.21715 17.8489L6.29004 17.8867L6.3633 17.9239L6.43693 17.9602L6.5109 17.9958L6.58514 18.0307L6.65971 18.0648L6.73456 18.0981L6.80979 18.1308L6.88525 18.1626L6.96104 18.1938L7.03706 18.2241L7.11336 18.2537L7.18994 18.2825L7.26671 18.3105L7.34376 18.3378L7.42109 18.3643L7.49861 18.3901L7.57636 18.415L7.65425 18.4392L7.73247 18.4626L7.81078 18.4853L7.88932 18.5071L7.96806 18.5282L8.04693 18.5485L8.12599 18.568L8.20514 18.5867L8.28453 18.6046L8.36401 18.6217L8.44358 18.6381L8.52334 18.6537L8.6032 18.6684L8.68315 18.6824L8.76319 18.6956L8.84332 18.708L8.92355 18.7196L9.00387 18.7304L9.0842 18.7404L9.16461 18.7497L9.24507 18.7581L9.32558 18.7657L9.40614 18.7726L9.4867 18.7786L9.56725 18.7839L9.64785 18.7884L9.72841 18.792L9.80897 18.7949L9.88952 18.797L9.97008 18.7983L10.0505 18.7988L10.131 18.7985L10.2114 18.7974L10.2917 18.7956L10.372 18.7929L10.4522 18.7895L10.5324 18.7853L10.6124 18.7803L10.6923 18.7746L10.7722 18.768L10.8519 18.7607L10.9315 18.7526L11.0109 18.7437L11.0902 18.734L11.1694 18.7236L11.2485 18.7124L11.3273 18.7004L11.406 18.6877L11.4846 18.6742L11.5629 18.6599L11.641 18.6449L11.719 18.6292L11.7967 18.6126L11.8742 18.5954L11.9515 18.5773L12.0286 18.5585L12.1054 18.539L12.182 18.5187L12.2583 18.4977L12.3344 18.476L12.4102 18.4535L12.4858 18.4303L12.561 18.4064L12.636 18.3818L12.7107 18.3564L12.7849 18.3303L12.8591 18.3035L12.9328 18.276L13.0062 18.2478L13.0793 18.2189L13.152 18.1893L13.2243 18.1589L13.2964 18.1279L13.3681 18.0962L13.4393 18.0639L13.5103 18.0308L13.5808 17.9971L13.651 17.9627L13.7208 17.9276L13.7901 17.8919L13.8591 17.8555L13.9276 17.8184L13.9957 17.7807L14.0634 17.7424L14.1306 17.7035L14.1976 17.6638L14.2638 17.6236L14.3299 17.5827L14.3953 17.5412L14.4603 17.4991L14.5248 17.4564L14.5889 17.413L14.6524 17.3691L14.7155 17.3246L14.7781 17.2795L14.8402 17.2338L14.9018 17.1874L14.9628 17.1406L15.0234 17.0931L15.0834 17.0452L15.1429 16.9966L15.202 16.9475L15.2604 16.8978L15.3182 16.8476L15.3756 16.7969L15.4324 16.7456L15.4886 16.6938L15.5443 16.6415L15.5993 16.5887L15.6539 16.5353L15.7078 16.4815L15.7612 16.4271L15.814 16.3723L15.8661 16.317L15.9176 16.2613L15.9687 16.2049L16.019 16.1483L16.0688 16.091L16.1178 16.0334L16.1664 15.9753L16.2143 15.9168L16.2615 15.8579L16.3081 15.7985L16.3541 15.7387L16.3995 15.6784L16.4441 15.6178L16.4882 15.5568L16.5317 15.4953L16.5743 15.4336L16.6165 15.3714L16.6578 15.3089L16.6986 15.2459L16.7388 15.1825L16.7781 15.1189L16.8169 15.055L16.855 14.9905L16.8923 14.9259L16.929 14.8609L16.965 14.7955L17.0003 14.73L17.0349 14.664L17.0689 14.5977L17.102 14.5313L17.1345 14.4644L17.1664 14.3973L17.1975 14.33L17.2279 14.2624L17.2576 14.1945L17.2865 14.1264L17.3148 14.058L17.3423 13.9893L17.3691 13.9207L17.3952 13.8515L17.4205 13.7823L17.4452 13.7127L17.4692 13.6431L17.4923 13.5732L17.5147 13.5033L17.5365 13.4329L17.5575 13.3626L17.5777 13.292L17.5973 13.2214L17.6161 13.1504L17.6341 13.0795L17.6514 13.0084L17.668 12.9371L17.6838 12.8657L17.6989 12.7942L17.7132 12.7227L17.7268 12.6509L17.7397 12.5793L17.7518 12.5073L17.7631 12.4354L17.7738 12.3634L17.7837 12.2913L17.7928 12.2193L17.8012 12.147L17.8088 12.075L17.8157 12.0027L17.8219 11.9306L17.8273 11.8582L17.832 11.7861L17.8359 11.7138L17.8391 11.6414L17.8415 11.5692L17.8432 11.4972L17.8442 11.4248L17.8444 11.3526L17.8439 11.2805L17.8426 11.2085L17.8406 11.1365L17.8379 11.0647L17.8344 10.9926L17.8302 10.9209L17.8252 10.8492L17.8196 10.7777L17.8132 10.7061L17.8061 10.6348L17.7982 10.5634L17.7896 10.4923L17.7803 10.4213L17.7703 10.3504L17.7595 10.2796L17.748 10.209L17.7359 10.1387L17.723 10.0683L17.7093 9.9982L17.695 9.92835L17.68 9.85845L17.6643 9.78907L17.6478 9.71959L17.6307 9.65059L17.6128 9.58148L17.5943 9.5129L17.5751 9.4444L17.5552 9.37605L17.5346 9.30812L17.5133 9.24042L17.4913 9.17277L17.4687 9.10563L17.4454 9.03854L17.4214 8.97187L17.3967 8.90534L17.3714 8.83928L17.3454 8.77331L17.3188 8.70771L17.2915 8.64254L17.2636 8.57765L17.2349 8.51285L17.2057 8.44865L17.1758 8.38451L17.1453 8.32097L17.1142 8.25767L17.0823 8.1946L17.05 8.13204L17.0169 8.06977L16.9832 8.00777L16.9491 7.94638L16.9142 7.88514L16.8787 7.8244L16.8426 7.76395L16.806 7.70411L16.7687 7.6444L16.7309 7.58526L16.6924 7.5264L16.6534 7.46805L16.6139 7.41022L16.5737 7.35262L16.533 7.29553L16.4917 7.23887L16.4499 7.18272L16.4075 7.12689L16.3646 7.07163L16.3212 7.01674L16.2772 6.96237L16.2327 6.90846L16.1876 6.85498L16.142 6.802L16.096 6.7495L16.0494 6.69751L16.0024 6.64599L15.9547 6.59489L15.9068 6.54449L15.858 6.49437L15.8091 6.44495L15.7596 6.39591L15.7096 6.34747L15.6591 6.29941L15.6083 6.25209L15.5569 6.20515L15.505 6.15877L15.4529 6.113L15.4002 6.06774L15.347 6.02291L15.2934 5.97873L15.2395 5.9351L15.1852 5.89205L15.1304 5.8495L15.0753 5.80766L15.0196 5.76614L14.9637 5.72542L14.9074 5.68521L14.8506 5.64552L14.7937 5.60648L14.7361 5.56791L14.6785 5.53013L14.6202 5.49277L14.5618 5.45607L14.5029 5.41993L14.4437 5.3844L14.3842 5.34952L14.3245 5.3153L14.2643 5.28149L14.204 5.24849L14.1432 5.21599L14.0822 5.18415L14.021 5.15297L13.9593 5.12235L13.8975 5.09233L13.8354 5.06302L13.773 5.03426L13.7104 5.00621L13.6475 4.97872L13.5824 4.95104L13.5212 4.92575L13.4574 4.90013L13.3938 4.8753L13.3297 4.85094L13.2655 4.82738L13.2011 4.80438L13.1365 4.78208L13.0717 4.76034L13.0068 4.73934L12.9416 4.71896L12.8763 4.69923L12.8109 4.6802L12.7453 4.66176L12.6794 4.64396L12.6136 4.62688L12.5477 4.61045L12.4814 4.59462L12.4153 4.57953L12.3488 4.56503L12.2824 4.55124L12.2157 4.53808L12.1492 4.5256L12.0824 4.51377L12.0157 4.50263L11.9486 4.49211L11.8818 4.48229L11.8148 4.47312L11.7477 4.4646L11.6806 4.45676L11.6135 4.44959L11.5464 4.44307L11.4792 4.43722L11.4119 4.43202L11.3447 4.42749L11.2776 4.42362L11.2104 4.42042L11.1431 4.41787L11.0761 4.41599L11.0089 4.41477L10.9418 4.41421L10.8747 4.4143L10.8612 4.41446L10.8824 6.20146L10.9205 6.20127L10.9695 6.20155L11.0186 6.2023L11.0677 6.20356L11.1168 6.20529L11.1659 6.20754L11.2151 6.21025L11.2643 6.21343L11.3134 6.21712L11.3626 6.22128L11.4118 6.22596L11.4609 6.2311L11.5101 6.23676L11.5593 6.24288L11.6084 6.24947L11.6574 6.25663L11.7065 6.2642L11.7555 6.27229L11.8045 6.28089L11.8534 6.28996L11.9022 6.29955L11.9511 6.3096L11.9998 6.32012L12.0485 6.33115L12.0971 6.3427L12.1456 6.35472L12.194 6.3672L12.2423 6.3802L12.2906 6.39366L12.3387 6.40764L12.3868 6.42209L12.4347 6.437L12.4825 6.45243L12.5302 6.46833L12.5778 6.48474L12.6252 6.50161L12.6725 6.51896L12.7196 6.53677L12.7667 6.5551L12.8135 6.57389L12.8602 6.59316L12.9067 6.61293L12.9531 6.63313L12.9993 6.65384L13.0453 6.67498L13.0911 6.69662L13.1368 6.71874L13.1823 6.74132L13.2275 6.76437L13.2726 6.78788L13.3174 6.81182L13.3621 6.83627L13.4065 6.86115L13.4507 6.88649L13.4947 6.91229L13.5384 6.93857L13.5819 6.96527L13.6252 6.99243L13.6682 7.02006L13.7109 7.04811L13.7534 7.07659L13.7957 7.10553L13.8377 7.13493L13.8794 7.16472L13.9208 7.19496L13.962 7.22568L14.0029 7.25677L14.0434 7.28833L14.0837 7.32031L14.1237 7.35266L14.1634 7.38548L14.2027 7.41873L14.2418 7.45234L14.2806 7.48638L14.319 7.52083L14.3571 7.55571L14.3949 7.59097L14.4323 7.62664L14.4694 7.66268L14.5061 7.69915L14.5425 7.73599L14.5786 7.77326L14.6143 7.81085L14.6496 7.84886L14.6846 7.88724L14.7192 7.926L14.7534 7.96508L14.7873 8.00459L14.8207 8.04442L14.8538 8.08463L14.8865 8.12521L14.9188 8.16612L14.9507 8.20741L14.9822 8.24902L15.0133 8.291L15.044 8.33327L15.0743 8.37591L15.1041 8.41887L15.1336 8.46216L15.1625 8.50579L15.1911 8.54969L15.2193 8.59396L15.247 8.63852L15.2743 8.68335L15.3011 8.72852L15.3275 8.77401L15.3534 8.81973L15.3789 8.86579L15.4039 8.91212L15.4285 8.95873L15.4526 9.00562L15.4763 9.0528L15.4994 9.10025L15.5222 9.14794L15.5444 9.19586L15.5661 9.24411L15.5874 9.29255L15.6082 9.34127L15.6285 9.39022L15.6483 9.4394L15.6676 9.48882L15.6864 9.53842L15.7047 9.58831L15.7225 9.63838L15.7399 9.68869L15.7567 9.73918L15.773 9.78991L15.7888 9.84078L15.8041 9.89188L15.8189 9.94317L15.8331 9.99464L15.8468 10.0463L15.8601 10.0981L15.8727 10.1501L15.8849 10.2022L15.8965 10.2545L15.9076 10.307L15.9182 10.3596L15.9282 10.4123L15.9377 10.4653L15.9466 10.5183L15.9551 10.5714L15.9629 10.6247L15.9702 10.678L15.977 10.7315L15.9833 10.7851L15.9889 10.8389L15.9941 10.8926L15.9987 10.9465L16.0027 11.0005L16.0062 11.0545L16.0091 11.1086L16.0115 11.1628L16.0134 11.2171L16.0146 11.2714L16.0153 11.3258L16.0155 11.3802L16.015 11.4346L16.0141 11.4891L16.0125 11.5436L16.0104 11.5981L16.0077 11.6527L16.0045 11.7072L16.0007 11.7618L15.9964 11.8164L15.9914 11.8709L15.986 11.9255L15.9799 11.98L15.9733 12.0346L15.9661 12.089L15.9583 12.1435L15.95 12.1979L15.9411 12.2523L15.9317 12.3066L15.9216 12.3609L15.9111 12.4152L15.8999 12.4693L15.8882 12.5234L15.8759 12.5774L15.863 12.6313L15.8496 12.6851L15.8356 12.7389L15.8211 12.7925L15.806 12.846L15.7903 12.8994L15.7741 12.9527L15.7573 13.0059L15.7399 13.059L15.722 13.1119L15.7036 13.1647L15.6846 13.2173L15.665 13.2698L15.6448 13.3221L15.6242 13.3742L15.603 13.4262L15.5812 13.4781L15.5588 13.5297L15.536 13.5812L15.5125 13.6325L15.4885 13.6835L15.4641 13.7344L15.439 13.7851L15.4134 13.8355L15.3872 13.8858L15.3606 13.9358L15.3334 13.9855L15.3056 14.0351L15.2774 14.0844L15.2486 14.1335L15.2193 14.1823L15.1895 14.2309L15.1591 14.2792L15.1282 14.3272L15.0969 14.375L15.0649 14.4225L15.0325 14.4697L14.9996 14.5166L14.9662 14.5632L14.9322 14.6096L14.8978 14.6556L14.8629 14.7013L14.8275 14.7467L14.7916 14.7918L14.7551 14.8366L14.7182 14.881L14.6809 14.9251L14.643 14.9689L14.6047 15.0123L14.5659 15.0554L14.5266 15.0981L14.4869 15.1405L14.4467 15.1825L14.406 15.2241L14.3649 15.2654L14.3233 15.3063L14.2813 15.3468L14.2388 15.3869L14.196 15.4266L14.1526 15.466L14.1088 15.5049L14.0646 15.5434L14.02 15.5816L13.975 15.6192L13.9295 15.6566L13.8836 15.6934L13.8373 15.7298L13.7906 15.7658L13.7435 15.8014L13.696 15.8365L13.6481 15.8712L13.5998 15.9055L13.5511 15.9392L13.5021 15.9726L13.4526 16.0054L13.4028 16.0378L13.3527 16.0698L13.3022 16.1012L13.2513 16.1322L13.2001 16.1627L13.1485 16.1927L13.0966 16.2222L13.0443 16.2513L12.9917 16.2798L12.9388 16.3079L12.8855 16.3354L12.8319 16.3624L12.7781 16.3889L12.7239 16.415L12.6694 16.4405L12.6146 16.4654L12.5595 16.4899L12.5041 16.5138L12.4485 16.5372L12.3925 16.5601L12.3364 16.5824L12.2799 16.6042L12.2232 16.6255L12.1662 16.6462L12.1089 16.6663L12.0514 16.6859L11.9937 16.705L11.9358 16.7235L11.8776 16.7414L11.8192 16.7588L11.7606 16.7756L11.7018 16.7919L11.6427 16.8075L11.5835 16.8226L11.5241 16.8372L11.4645 16.8511L11.4046 16.8645L11.3447 16.8773L11.2845 16.8895L11.2242 16.9012L11.1637 16.9123L11.1031 16.9227L11.0423 16.9326L10.9814 16.9418L10.9204 16.9505L10.8592 16.9586L10.7979 16.9662L10.7365 16.973L10.675 16.9793L10.6134 16.985L10.5516 16.9901L10.4898 16.9946L10.4279 16.9985L10.3659 17.0018L10.3039 17.0044L10.2418 17.0065L10.1796 17.008L10.1173 17.0088L10.055 17.009L9.99271 17.0087L9.93038 17.0076L9.86797 17.006L9.80555 17.0038L9.74314 17.0009L9.68067 16.9975L9.61826 16.9934L9.5558 16.9887L9.49338 16.9834L9.43097 16.9775L9.36855 16.9709L9.30618 16.9638L9.24386 16.956L9.18154 16.9476L9.11931 16.9386L9.05713 16.9289L8.99499 16.9187L8.9329 16.9078L8.87091 16.8964L8.80901 16.8842L8.7472 16.8715L8.68544 16.8582L8.62382 16.8442L8.56229 16.8296L8.50086 16.8144L8.43956 16.7986L8.37836 16.7822L8.3173 16.7652L8.25643 16.7476L8.19565 16.7294L8.13501 16.7105L8.07456 16.691L8.0143 16.671L7.95412 16.6503L7.89419 16.629L7.83443 16.6071L7.77482 16.5847L7.71545 16.5616L7.65626 16.5379L7.59726 16.5136L7.53849 16.4887L7.47995 16.4633L7.42165 16.4372L7.36354 16.4105L7.3057 16.3833L7.2481 16.3555L7.19074 16.3271L7.1336 16.2981L7.0768 16.2686L7.02023 16.2384L6.96394 16.2077L6.90793 16.1764L6.8522 16.1445L6.79675 16.1121L6.74162 16.0791L6.68678 16.0455L6.63227 16.0115L6.57808 15.9768L6.52422 15.9416L6.47069 15.9057L6.41748 15.8694L6.36461 15.8326L6.3121 15.7952L6.25993 15.7572L6.20812 15.7187L6.15665 15.6797L6.10559 15.6401L6.05491 15.6001L6.00461 15.5594L5.95467 15.5184L5.90512 15.4767L5.85598 15.4346L5.80726 15.3919L5.75892 15.3487L5.711 15.3051L5.66354 15.2609L5.61646 15.2163L5.5698 15.1711L5.52361 15.1255L5.47788 15.0794L5.43258 15.0328L5.3877 14.9857L5.34328 14.9382L5.29938 14.8902L5.2559 14.8417L5.21289 14.7928L5.17039 14.7435L5.12831 14.6937L5.08679 14.6434L5.0457 14.5927L5.00516 14.5416L4.96509 14.49L4.92554 14.438L4.8865 14.3856L4.84793 14.3328L4.80992 14.2796L4.77247 14.226L4.73549 14.1719L4.69907 14.1175L4.66319 14.0627L4.62785 14.0075L4.59305 13.9519L4.55881 13.8959L4.52512 13.8396L4.49199 13.7829L4.45942 13.7258L4.42742 13.6685L4.39599 13.6107L4.36514 13.5526L4.33486 13.4942L4.30517 13.4354L4.27606 13.3763L4.24755 13.3169L4.21963 13.2572L4.19231 13.1971L4.16558 13.1368L4.13947 13.0761L4.11396 13.0152L4.08906 12.954L4.06478 12.8925L4.04111 12.8307L4.01807 12.7687L3.99564 12.7064L3.97385 12.6438L3.95269 12.581L3.93216 12.5179L3.91227 12.4546L3.89301 12.3911L3.8744 12.3273L3.85644 12.2634L3.83911 12.1992L3.82245 12.1348L3.80643 12.0702L3.79106 12.0054L3.77636 11.9404L3.76231 11.8752L3.74892 11.8099L3.7362 11.7444L3.72414 11.6787L3.71275 11.6129L3.70204 11.5469L3.69199 11.4808L3.68262 11.4146L3.67392 11.3482L3.6659 11.2817L3.65856 11.215L3.6519 11.1483L3.64592 11.0815L3.64063 11.0145L3.63602 10.9475L3.63209 10.8804L3.62885 10.8132L3.62631 10.746L3.62445 10.6786L3.62328 10.6113L3.6228 10.5438L3.62302 10.4763L3.62393 10.4088L3.62554 10.3413L3.62784 10.2738L3.63083 10.2062L3.63453 10.1386L3.63891 10.071L3.644 10.0034L3.64978 9.93583L3.65626 9.86831L3.66344 9.80076L3.67131 9.73329L3.67989 9.66583L3.68916 9.59841L3.69912 9.53104L3.70979 9.46376L3.72115 9.39653L3.73322 9.32939L3.74598 9.2623L3.75943 9.1953L3.77358 9.12845L3.78843 9.06164L3.80397 8.99496L3.8202 8.92839L3.83713 8.86195L3.85475 8.79566L3.87306 8.72945L3.89206 8.66344L3.91175 8.59756L3.93212 8.53183L3.95319 8.46623L3.97494 8.40087L3.99737 8.33565L4.02049 8.27062L4.04429 8.20577L4.06876 8.14111L4.09392 8.07668L4.11975 8.01245L4.14625 7.94844L4.17343 7.88467L4.20128 7.82108L4.2298 7.75778L4.25898 7.69471L4.28882 7.63187L4.31933 7.56932L4.3505 7.50704L4.38232 7.445L4.4148 7.38329L4.44793 7.32181L4.48172 7.26065L4.51615 7.19978L4.55122 7.13919L4.58693 7.07897L4.62329 7.01903L4.66027 6.95942L4.6979 6.90014L4.73614 6.84118L4.77504 6.7826L4.8145 6.72435L4.85466 6.66647L4.89539 6.60891L4.93672 6.55173L4.9787 6.49498L5.02125 6.43854L5.06445 6.38253L5.10821 6.3269L5.15258 6.27168L5.19751 6.21689L5.24304 6.16247L5.28919 6.10847L5.3359 6.05489L5.38316 6.00178L5.43104 5.94908L5.47943 5.89681L5.52842 5.84501L5.57798 5.79363L5.62806 5.74276L5.67869 5.69232L5.72988 5.64234L5.78164 5.59287L5.83391 5.54383L5.88669 5.49534L5.94004 5.44728L5.9939 5.39978L6.04823 5.35275L6.10312 5.30623L6.15852 5.26022L6.21439 5.21473L6.27077 5.16975L6.32767 5.12534L6.38504 5.08144L6.44287 5.0381L6.50122 4.99527L6.55999 4.95301L6.61922 4.9113L6.67898 4.87016L6.73915 4.82958L6.79974 4.7896L6.86085 4.75014L6.92233 4.71129L6.98427 4.67302L7.04664 4.63533L7.10943 4.59824L7.1726 4.56174L7.23623 4.52585L7.30023 4.49055L7.36461 4.45587L7.42941 4.42181L7.49459 4.38836L7.56013 4.35554L7.62606 4.32334L7.69235 4.29177L7.75902 4.26084L7.82602 4.23054L7.89339 4.20089L7.96109 4.17188L8.02912 4.14353L8.09747 4.11582L8.1661 4.08877L8.23511 4.06239L8.3044 4.03666L8.37401 4.01161L8.44391 3.98722L8.51409 3.96351L8.58454 3.94047L8.65523 3.91812L8.72625 3.89644L8.79751 3.87546L8.86904 3.85516L8.94076 3.83555L9.01276 3.81664L9.08499 3.79843L9.15746 3.78091L9.23011 3.7641L9.303 3.74799L9.37608 3.73259L9.44934 3.7179L9.52283 3.70393L9.59647 3.69066L9.67029 3.67812L9.7443 3.66629L9.81846 3.65518L9.89275 3.64479L9.96718 3.63513L9.99495 3.6318ZM10.0264 6.28229L10.005 4.47565L9.94394 4.48418L9.87835 4.49401L9.81271 4.5045L9.74748 4.51558L9.68217 4.52735L9.61718 4.53971L9.55234 4.55271L9.48772 4.56632L9.42325 4.58058L9.35892 4.59547L9.29477 4.61096L9.23091 4.62708L9.16709 4.64383L9.1058 4.66056L9.04048 4.67913L8.97741 4.69769L8.91462 4.71686L8.85216 4.73659L8.78984 4.75697L8.72775 4.77796L8.66594 4.79952L8.60446 4.82163L8.54321 4.8444L8.48225 4.86768L8.42151 4.89162L8.36125 4.91607L8.30099 4.94118L8.24119 4.9668L8.18167 4.99298L8.12258 5.01972L8.06362 5.04707L8.00499 5.07499L7.94688 5.10336L7.88886 5.1324L7.83144 5.1619L7.77412 5.19206L7.71736 5.22259L7.6607 5.25386L7.6046 5.28547L7.54887 5.31768L7.49342 5.35046L7.43839 5.3837L7.38364 5.41755L7.32945 5.45177L7.2755 5.4866L7.22206 5.5219L7.169 5.55767L7.1163 5.59399L7.06394 5.63084L7.01219 5.668L6.96071 5.70583L6.90966 5.74407L6.85907 5.78278L6.80895 5.82192L6.75916 5.86161L6.70993 5.90168L6.66112 5.94221L6.61268 5.98331L6.56485 6.02468L6.51735 6.06662L6.47032 6.10898L6.4238 6.15171L6.37779 6.19487L6.33211 6.23853L6.28709 6.28248L6.24249 6.3269L6.19831 6.37178L6.15468 6.41699L6.11153 6.46267L6.06889 6.50867L6.02677 6.55505L5.98511 6.60185L5.94392 6.64907L5.90343 6.69653L5.86332 6.74445L5.82372 6.79275L5.78468 6.84132L5.7462 6.89023L5.70814 6.9396L5.67069 6.9892L5.63376 7.03918L5.59739 7.08949L5.56153 7.14012L5.52627 7.19099L5.49154 7.24223L5.45731 7.2938L5.42365 7.34565L5.3906 7.39773L5.3581 7.45014L5.32612 7.50293L5.2947 7.55585L5.26389 7.60911L5.2336 7.66264L5.20396 7.71631L5.17483 7.77036L5.14622 7.82468L5.11831 7.87911L5.09091 7.9339L5.06412 7.98888L5.03789 8.044L5.01227 8.09945L4.98721 8.15504L4.96276 8.21087L4.93887 8.26688L4.91563 8.32307L4.89295 8.37946L4.87084 8.43608L4.84933 8.49284L4.82848 8.54973L4.80814 8.60687L4.78851 8.66404L4.76939 8.72146L4.75092 8.77901L4.73301 8.83671L4.71576 8.89449L4.69907 8.95242L4.68303 9.01044L4.66756 9.06865L4.65271 9.1269L4.63848 9.1853L4.62485 9.24378L4.61183 9.30232L4.59942 9.361L4.58763 9.41972L4.57644 9.47849L4.56587 9.5374L4.55592 9.59631L4.54656 9.65531L4.53783 9.71426L4.5297 9.77336L4.52219 9.83246L4.51529 9.8916L4.509 9.95074L4.50333 10.0099L4.49826 10.0691L4.49381 10.1283L4.48997 10.1875L4.48673 10.2467L4.48411 10.3058L4.4821 10.365L4.48069 10.4241L4.4799 10.4832L4.47971 10.5423L4.48012 10.6013L4.48115 10.6602L4.48277 10.7191L4.485 10.7779L4.48783 10.8368L4.49126 10.8955L4.4953 10.9541L4.49993 11.0126L4.50516 11.0711L4.51098 11.1294L4.5174 11.1877L4.52441 11.2459L4.53201 11.3039L4.54021 11.3618L4.54899 11.4196L4.55836 11.4772L4.56831 11.5348L4.57885 11.5922L4.58996 11.6494L4.60166 11.7065L4.61393 11.7634L4.62678 11.8202L4.64019 11.8767L4.65419 11.9332L4.66874 11.9894L4.68387 12.0455L4.69954 12.1013L4.71581 12.157L4.73259 12.2124L4.74998 12.2677L4.76789 12.3228L4.78636 12.3776L4.80539 12.4321L4.82493 12.4865L4.84503 12.5406L4.8657 12.5945L4.88688 12.6482L4.90857 12.7016L4.93082 12.7547L4.95359 12.8076L4.97692 12.8602L5.00072 12.9126L5.02508 12.9646L5.04995 13.0164L5.07529 13.0679L5.10119 13.1191L5.12756 13.1701L5.15445 13.2207L5.18184 13.271L5.20971 13.321L5.23809 13.3707L5.26693 13.4201L5.2963 13.4692L5.32612 13.5179L5.35642 13.5663L5.38718 13.6144L5.41846 13.6622L5.45011 13.7095L5.48233 13.7565L5.51491 13.8032L5.54801 13.8495L5.58154 13.8955L5.61553 13.9411L5.64994 13.9863L5.68481 14.0312L5.72007 14.0756L5.75579 14.1197L5.79193 14.1634L5.82849 14.2068L5.86547 14.2497L5.90287 14.2922L5.94065 14.3343L5.97885 14.3761L6.01742 14.4174L6.05641 14.4583L6.09578 14.4988L6.13556 14.5388L6.17568 14.5785L6.21621 14.6177L6.25712 14.6565L6.29831 14.6948L6.33997 14.7328L6.38191 14.7703L6.42422 14.8073L6.4669 14.8439L6.50992 14.88L6.55326 14.9157L6.59692 14.951L6.64092 14.9857L6.68524 15.0201L6.72989 15.054L6.77487 15.0873L6.82008 15.1202L6.86561 15.1527L6.91148 15.1847L6.95762 15.2162L7.0041 15.2472L7.0508 15.2778L7.09779 15.3078L7.14506 15.3374L7.19256 15.3665L7.24034 15.3951L7.2884 15.4232L7.33665 15.4508L7.38523 15.4779L7.43395 15.5045L7.48299 15.5306L7.53222 15.5563L7.58164 15.5813L7.63134 15.606L7.68127 15.63L7.73134 15.6537L7.7816 15.6767L7.83214 15.6993L7.88278 15.7213L7.93365 15.7428L7.9847 15.7639L8.03594 15.7843L8.08728 15.8043L8.13885 15.8237L8.19055 15.8427L8.2424 15.8611L8.29439 15.879L8.34657 15.8964L8.39884 15.9131L8.45125 15.9295L8.5038 15.9452L8.55645 15.9605L8.60918 15.9752L8.66206 15.9893L8.71503 16.003L8.7681 16.0161L8.82126 16.0287L8.87451 16.0408L8.92785 16.0523L8.98125 16.0633L9.03468 16.0737L9.08826 16.0836L9.1418 16.093L9.19547 16.1019L9.24914 16.1102L9.30286 16.118L9.35663 16.1253L9.41039 16.132L9.46421 16.1382L9.51802 16.1438L9.57188 16.1489L9.62574 16.1535L9.6796 16.1575L9.73346 16.1611L9.78727 16.164L9.84108 16.1665L9.89494 16.1684L9.94871 16.1698L10.0024 16.1707L10.0561 16.171L10.1098 16.1708L10.1634 16.17L10.217 16.1688L10.2705 16.1671L10.324 16.1648L10.3773 16.1619L10.4306 16.1586L10.4838 16.1547L10.537 16.1503L10.59 16.1454L10.643 16.14L10.6959 16.134L10.7486 16.1276L10.8013 16.1206L10.8538 16.1132L10.9062 16.1052L10.9584 16.0967L11.0105 16.0877L11.0626 16.0782L11.1144 16.0682L11.1661 16.0577L11.2177 16.0467L11.2691 16.0352L11.3203 16.0232L11.3714 16.0107L11.4223 15.9977L11.473 15.9842L11.5235 15.9703L11.5739 15.9558L11.6241 15.9409L11.674 15.9255L11.7237 15.9096L11.7733 15.8933L11.8227 15.8764L11.8718 15.8591L11.9207 15.8414L11.9694 15.8231L12.0178 15.8044L12.066 15.7853L12.114 15.7656L12.1618 15.7456L12.2092 15.725L12.2565 15.7041L12.3034 15.6827L12.3502 15.6608L12.3967 15.6385L12.4428 15.6158L12.4888 15.5926L12.5344 15.569L12.5797 15.545L12.6247 15.5205L12.6695 15.4957L12.714 15.4704L12.7582 15.4447L12.8021 15.4185L12.8456 15.392L12.8888 15.3651L12.9318 15.3377L12.9744 15.3101L13.0167 15.2819L13.0587 15.2534L13.1003 15.2245L13.1416 15.1952L13.1826 15.1655L13.2232 15.1355L13.2635 15.1051L13.3035 15.0743L13.3429 15.0432L13.3823 15.0116L13.4212 14.9798L13.4596 14.9476L13.4978 14.9149L13.5355 14.882L13.5729 14.8488L13.61 14.8151L13.6466 14.7813L13.6828 14.747L13.7188 14.7124L13.7542 14.6775L13.7893 14.6423L13.824 14.6068L13.8584 14.5709L13.8922 14.5348L13.9257 14.4983L13.9589 14.4615L13.9915 14.4246L14.0239 14.3872L14.0557 14.3496L14.0871 14.3117L14.1182 14.2735L14.1488 14.2351L14.179 14.1964L14.2088 14.1574L14.2381 14.1181L14.267 14.0787L14.2955 14.039L14.3236 13.999L14.3511 13.9588L14.3783 13.9184L14.4051 13.8776L14.4313 13.8368L14.4572 13.7957L14.4826 13.7543L14.5075 13.7128L14.532 13.671L14.5561 13.629L14.5796 13.587L14.6028 13.5445L14.6255 13.502L14.6476 13.4593L14.6695 13.4163L14.6907 13.3734L14.7116 13.33L14.7319 13.2868L14.7519 13.2431L14.7713 13.1994L14.7903 13.1554L14.8088 13.1115L14.8268 13.0674L14.8444 13.023L14.8615 12.9786L14.878 12.9341L14.8943 12.8894L14.9099 12.8446L14.9251 12.7997L14.9398 12.7547L14.9541 12.7095L14.9679 12.6643L14.9811 12.619L14.9939 12.5736L15.0062 12.5282L15.0181 12.4826L15.0295 12.4369L15.0404 12.3913L15.0508 12.3454L15.0607 12.2996L15.0702 12.2538L15.0791 12.2079L15.0876 12.1619L15.0956 12.1158L15.1032 12.0698L15.1102 12.0237L15.1168 11.9776L15.1228 11.9315L15.1285 11.8854L15.1336 11.8391L15.1382 11.7931L15.1424 11.7468L15.1461 11.7007L15.1493 11.6546L15.1521 11.6084L15.1543 11.5623L15.1561 11.5163L15.1574 11.4701L15.1582 11.4242L15.1586 11.3781L15.1584 11.3321L15.1579 11.2862L15.1568 11.2404L15.1552 11.1945L15.1532 11.1487L15.1508 11.1032L15.1478 11.0574L15.1444 11.0119L15.1406 10.9665L15.1362 10.921L15.1314 10.8758L15.1261 10.8305L15.1204 10.7854L15.1142 10.7404L15.1076 10.6954L15.1005 10.6506L15.093 10.606L15.085 10.5614L15.0765 10.517L15.0676 10.4726L15.0582 10.4284L15.0485 10.3844L15.0382 10.3405L15.0275 10.2966L15.0164 10.2531L15.0048 10.2095L14.9929 10.1663L14.9804 10.1231L14.9676 10.0802L14.9543 10.0373L14.9406 9.9946L14.9264 9.95219L14.9119 9.90993L14.8968 9.86771L14.8815 9.82586L14.8657 9.78411L14.8494 9.74264L14.8328 9.70127L14.8157 9.66008L14.7983 9.61926L14.7804 9.57849L14.7621 9.53805L14.7435 9.49784L14.7244 9.45773L14.7049 9.41785L14.6851 9.37834L14.6649 9.33893L14.6443 9.29989L14.6233 9.26108L14.6019 9.22233L14.5802 9.18403L14.558 9.14588L14.5355 9.10806L14.5126 9.07038L14.4895 9.03312L14.4658 8.99595L14.4419 8.9592L14.4176 8.92268L14.393 8.88645L14.3679 8.8504L14.3426 8.81473L14.317 8.77939L14.2909 8.74418L14.2645 8.7094L14.2378 8.67485L14.2109 8.64067L14.1835 8.60668L14.1558 8.57306L14.1278 8.53973L14.0995 8.50667L14.0709 8.47404L14.042 8.44159L14.0128 8.40957L13.9832 8.37778L13.9535 8.34645L13.9233 8.31527L13.893 8.28455L13.8622 8.25402L13.8312 8.22396L13.8001 8.19422L13.7685 8.16477L13.7367 8.13564L13.7046 8.10693L13.6723 8.07855L13.6396 8.05041L13.607 8.02282L13.5738 7.99538L13.5405 7.9684L13.5069 7.9418L13.4731 7.91543L13.439 7.88953L13.4049 7.86405L13.3703 7.8388L13.3354 7.81388L13.3006 7.78953L13.2653 7.76535L13.23 7.74174L13.1945 7.71837L13.1586 7.69536L13.1226 7.67274L13.0865 7.65058L13.05 7.6287L13.0135 7.60728L12.9767 7.58615L12.9399 7.56553L12.9028 7.54524L12.8655 7.52528L12.828 7.50573L12.7905 7.48666L12.7527 7.46786L12.7147 7.44949L12.6767 7.43154L12.6386 7.414L12.6001 7.39675L12.5617 7.38001L12.5231 7.36365L12.4843 7.34761L12.4455 7.33205L12.4066 7.3169L12.3675 7.30212L12.3282 7.28768L12.2889 7.27374L12.2495 7.26014L12.2099 7.24695L12.1704 7.23419L12.1307 7.22185L12.091 7.20988L12.051 7.19828L12.0111 7.18716L11.9712 7.1764L11.9311 7.16607L11.891 7.15611L11.8507 7.14658L11.8105 7.13746L11.7703 7.12876L11.7299 7.12044L11.6894 7.11249L11.6491 7.10506L11.6086 7.09795L11.5681 7.09127L11.5275 7.08495L11.4871 7.07911L11.4464 7.07359L11.406 7.06859L11.3654 7.06392L11.3248 7.05966L11.2843 7.05583L11.2436 7.05237L11.2032 7.04933L11.1625 7.04671L11.122 7.04447L11.0816 7.04264L11.041 7.04119L11.0006 7.04016L10.9602 7.03956L10.9199 7.03932L10.8923 7.03942L10.9132 8.80454L10.9257 8.80459L10.9489 8.80491L10.9721 8.80547L10.9954 8.80622L11.0187 8.8073L11.042 8.80856L11.0653 8.81006L11.0887 8.81183L11.1121 8.81384L11.1355 8.81609L11.1589 8.81857L11.1823 8.82128L11.2058 8.82427L11.2292 8.82749L11.2527 8.83095L11.2762 8.83469L11.2996 8.83867L11.3231 8.84288L11.3465 8.84737L11.37 8.85204L11.3934 8.85704L11.4168 8.86223L11.4402 8.8677L11.4636 8.87341L11.4869 8.87934L11.5103 8.88556L11.5336 8.89201L11.5568 8.8987L11.5801 8.90567L11.6033 8.91287L11.6264 8.92035L11.6495 8.92806L11.6726 8.93601L11.6956 8.94419L11.7186 8.95265L11.7415 8.96135L11.7644 8.97028L11.7872 8.97949L11.8099 8.98893L11.8326 8.99861L11.8552 9.00857L11.8777 9.01876L11.9002 9.02919L11.9226 9.03989L11.9449 9.05079L11.9672 9.06196L11.9893 9.07342L12.0114 9.08506L12.0333 9.09698L12.0552 9.10914L12.077 9.12153L12.0987 9.13415L12.1203 9.14701L12.1418 9.16014L12.1631 9.17352L12.1844 9.18712L12.2055 9.20091L12.2266 9.21498L12.2475 9.22934L12.2683 9.24388L12.289 9.25865L12.3096 9.27366L12.33 9.2889L12.3503 9.30438L12.3704 9.32009L12.3905 9.33603L12.4104 9.35221L12.4301 9.36857L12.4497 9.38521L12.4692 9.40205L12.4885 9.41911L12.5077 9.43641L12.5266 9.45394L12.5455 9.47166L12.5641 9.48961L12.5827 9.5078L12.601 9.52617L12.6192 9.54478L12.6373 9.56358L12.6551 9.58261L12.6727 9.60187L12.6902 9.62132L12.7076 9.64095L12.7247 9.66082L12.7416 9.68088L12.7584 9.70113L12.7749 9.7216L12.7913 9.74227L12.8075 9.76312L12.8235 9.78421L12.8393 9.80543L12.8548 9.82689L12.8702 9.84849L12.8854 9.87033L12.9003 9.89235L12.9151 9.91455L12.9296 9.9369L12.944 9.95949L12.958 9.98221L12.9719 10.0051L12.9856 10.0282L12.999 10.0514L13.0122 10.0749L13.0252 10.0985L13.0379 10.1222L13.0505 10.1462L13.0627 10.1702L13.0748 10.1945L13.0866 10.2189L13.0981 10.2435L13.1094 10.2681L13.1205 10.293L13.1313 10.318L13.1419 10.3432L13.1522 10.3685L13.1623 10.3939L13.1721 10.4195L13.1817 10.4452L13.191 10.4711L13.2 10.4971L13.2088 10.5231L13.2173 10.5494L13.2256 10.5757L13.2335 10.6022L13.2413 10.6288L13.2487 10.6555L13.2559 10.6823L13.2628 10.7093L13.2694 10.7363L13.2758 10.7635L13.2818 10.7907L13.2876 10.8181L13.2932 10.8456L13.2983 10.873L13.3033 10.9007L13.308 10.9284L13.3124 10.9562L13.3164 10.9841L13.3202 11.0121L13.3237 11.0401L13.327 11.0683L13.3299 11.0965L13.3325 11.1247L13.3349 11.153L13.3369 11.1815L13.3386 11.2099L13.3401 11.2384L13.3412 11.267L13.3421 11.2956L13.3426 11.3243L13.3429 11.353L13.3428 11.3817L13.3425 11.4105L13.3418 11.4393L13.3408 11.4682L13.3396 11.4971L13.338 11.526L13.3361 11.5549L13.3339 11.5838L13.3314 11.6128L13.3286 11.6418L13.3255 11.6708L13.3221 11.6998L13.3183 11.7288L13.3143 11.7578L13.3099 11.7868L13.3053 11.8158L13.3003 11.8448L13.295 11.8738L13.2894 11.9028L13.2835 11.9317L13.2772 11.9607L13.2707 11.9896L13.2638 12.0184L13.2566 12.0473L13.2492 12.0761L13.2414 12.1049L13.2333 12.1337L13.2249 12.1623L13.2161 12.191L13.2071 12.2196L13.1977 12.2481L13.1881 12.2766L13.1781 12.305L13.1678 12.3334L13.1572 12.3617L13.1463 12.3899L13.135 12.4181L13.1235 12.4461L13.1117 12.4742L13.0995 12.5021L13.087 12.5299L13.0743 12.5577L13.0612 12.5853L13.0477 12.6129L13.0341 12.6403L13.0201 12.6677L13.0058 12.6949L12.9911 12.722L12.9762 12.7491L12.961 12.776L12.9455 12.8028L12.9297 12.8295L12.9136 12.856L12.8971 12.8825L12.8804 12.9087L12.8634 12.9349L12.8461 12.9609L12.8285 12.9868L12.8106 13.0125L12.7924 13.0381L12.7739 13.0635L12.7551 13.0888L12.736 13.1139L12.7167 13.1389L12.6971 13.1637L12.6771 13.1884L12.6569 13.2128L12.6365 13.2371L12.6157 13.2612L12.5946 13.2852L12.5733 13.3089L12.5517 13.3325L12.5298 13.3559L12.5077 13.3791L12.4853 13.4022L12.4626 13.425L12.4396 13.4476L12.4164 13.47L12.3929 13.4922L12.3692 13.5142L12.3452 13.536L12.3209 13.5576L12.2964 13.5789L12.2716 13.6001L12.2466 13.621L12.2213 13.6417L12.1958 13.6622L12.1701 13.6824L12.1441 13.7024L12.1178 13.7221L12.0913 13.7417L12.0646 13.7609L12.0376 13.78L12.0105 13.7988L11.983 13.8173L11.9554 13.8357L11.9275 13.8537L11.8994 13.8715L11.8711 13.889L11.8426 13.9063L11.8138 13.9232L11.7849 13.94L11.7557 13.9564L11.7263 13.9726L11.6968 13.9885L11.667 14.0042L11.637 14.0195L11.6068 14.0346L11.5765 14.0494L11.5459 14.0639L11.5151 14.0781L11.4842 14.0921L11.4531 14.1057L11.4218 14.119L11.3903 14.1321L11.3587 14.1448L11.3269 14.1572L11.2949 14.1694L11.2627 14.1812L11.2304 14.1928L11.198 14.204L11.1653 14.2149L11.1325 14.2255L11.0996 14.2357L11.0666 14.2457L11.0333 14.2554L11 14.2647L10.9665 14.2737L10.9329 14.2823L10.8992 14.2907L10.8653 14.2987L10.8313 14.3064L10.7971 14.3138L10.7629 14.3208L10.7286 14.3275L10.6941 14.3339L10.6595 14.3399L10.6249 14.3456L10.5901 14.3509L10.5552 14.3559L10.5203 14.3606L10.4853 14.3649L10.4501 14.3689L10.4149 14.3725L10.3796 14.3758L10.3443 14.3787L10.3089 14.3814L10.2733 14.3836L10.2378 14.3855L10.2022 14.387L10.1665 14.3882L10.1307 14.389L10.095 14.3894L10.0591 14.3896L10.0233 14.3894L9.98738 14.3887L9.95142 14.3878L9.91547 14.3865L9.87947 14.3848L9.84342 14.3827L9.80737 14.3803L9.77133 14.3776L9.73528 14.3744L9.69919 14.3709L9.66314 14.3671L9.62705 14.3628L9.591 14.3583L9.55491 14.3533L9.51886 14.348L9.48281 14.3423L9.44681 14.3363L9.41081 14.3299L9.37486 14.3231L9.33891 14.316L9.303 14.3085L9.26714 14.3006L9.23133 14.2923L9.19556 14.2837L9.1598 14.2748L9.12412 14.2655L9.08854 14.2557L9.05297 14.2457L9.01753 14.2353L8.98209 14.2245L8.94674 14.2133L8.91149 14.2018L8.87628 14.1899L8.84122 14.1777L8.8062 14.165L8.77128 14.152L8.73649 14.1387L8.70175 14.125L8.66716 14.1109L8.63265 14.0965L8.59829 14.0818L8.56402 14.0666L8.52984 14.0511L8.49585 14.0353L8.46191 14.0191L8.42815 14.0025L8.39454 13.9856L8.36106 13.9683L8.32773 13.9507L8.29453 13.9328L8.26148 13.9144L8.22861 13.8958L8.19584 13.8768L8.1633 13.8574L8.1309 13.8377L8.09868 13.8177L8.06661 13.7973L8.03473 13.7766L8.00303 13.7555L7.97152 13.7341L7.94024 13.7123L7.9091 13.6903L7.87815 13.6679L7.84743 13.6451L7.8169 13.622L7.78661 13.5987L7.7565 13.5749L7.72662 13.5509L7.69693 13.5265L7.66748 13.5018L7.63826 13.4768L7.60927 13.4515L7.58052 13.4259L7.552 13.3999L7.52371 13.3736L7.49566 13.3471L7.46789 13.3202L7.4403 13.293L7.41305 13.2655L7.38602 13.2378L7.35923 13.2097L7.33273 13.1813L7.3065 13.1526L7.28055 13.1237L7.25484 13.0945L7.22945 13.0649L7.20429 13.0351L7.17942 13.005L7.15488 12.9746L7.13061 12.944L7.10663 12.9131L7.08292 12.8819L7.05955 12.8505L7.0365 12.8188L7.01373 12.7868L6.99124 12.7545L6.96908 12.722L6.94725 12.6893L6.92574 12.6563L6.90456 12.6231L6.88366 12.5896L6.86314 12.5559L6.84289 12.5219L6.82302 12.4877L6.80348 12.4533L6.78426 12.4186L6.76538 12.3837L6.74686 12.3486L6.72867 12.3133L6.71081 12.2777L6.69333 12.242L6.67622 12.206L6.65943 12.1699L6.64302 12.1335L6.62699 12.0969L6.61128 12.0602L6.59594 12.0232L6.58098 11.9861L6.56639 11.9487L6.55218 11.9112L6.53839 11.8735L6.52492 11.8356L6.51183 11.7976L6.49912 11.7594L6.48682 11.7211L6.4749 11.6825L6.46335 11.6439L6.45218 11.605L6.44142 11.566L6.43109 11.5269L6.42108 11.4876L6.41155 11.4482L6.40238 11.4087L6.39359 11.369L6.38522 11.3292L6.37728 11.2893L6.3697 11.2493L6.36255 11.2091L6.35582 11.1688L6.34951 11.1285L6.34357 11.088L6.33805 11.0475L6.333 11.0068L6.32833 10.9661L6.32407 10.9252L6.32024 10.8843L6.31682 10.8433L6.31383 10.8023L6.31126 10.7611L6.30911 10.7199L6.30738 10.6787L6.30607 10.6374L6.30523 10.596L6.30481 10.5546L6.30476 10.5131L6.30518 10.4716L6.30607 10.4301L6.30733 10.3885L6.30906 10.3469L6.31121 10.3053L6.31379 10.2637L6.31678 10.2221L6.32024 10.1804L6.32412 10.1387L6.32842 10.0971L6.33319 10.0554L6.33838 10.0138L6.34399 9.97215L6.35007 9.93054L6.35656 9.88893L6.36353 9.84737L6.37087 9.80581L6.37868 9.76429L6.38695 9.72282L6.39565 9.6814L6.40477 9.64002L6.41431 9.59869L6.42431 9.55745L6.43474 9.51622L6.44563 9.47507L6.45694 9.43402L6.46868 9.39302L6.48083 9.35207L6.49346 9.31125L6.5065 9.27048L6.51997 9.22981L6.5339 9.18927L6.54825 9.14878L6.56303 9.10843L6.57822 9.06818L6.59388 9.02807L6.60997 8.98805L6.62647 8.94812L6.6434 8.90838L6.66074 8.86873L6.67855 8.82922L6.69674 8.78986L6.7154 8.75063L6.73442 8.71159L6.75392 8.67265L6.77379 8.63389L6.79413 8.59532L6.81484 8.55689L6.83602 8.51864L6.85757 8.48054L6.87955 8.44262L6.90194 8.40494L6.92476 8.3674L6.94795 8.33004L6.9716 8.29292L6.99564 8.25594L7.02004 8.21919L7.04487 8.18267L7.07011 8.14635L7.09573 8.11025L7.12178 8.07439L7.14819 8.03872L7.17498 8.00328L7.20219 7.96812L7.22978 7.93315L7.25778 7.89846L7.28616 7.86396L7.31487 7.82978L7.34399 7.79579L7.37349 7.76208L7.40337 7.72865L7.43362 7.69546L7.46424 7.66259L7.49524 7.62996L7.52661 7.5976L7.55831 7.56553L7.59038 7.53374L7.62283 7.50223L7.6556 7.47104L7.68875 7.44014L7.72223 7.40952L7.75603 7.37922L7.79021 7.3492L7.82476 7.31956L7.85959 7.29015L7.89479 7.26112L7.93028 7.23241L7.96614 7.20399L8.00228 7.17594L8.03879 7.14821L8.07559 7.12081L8.11271 7.09374L8.15016 7.06705L8.18789 7.04068L8.22595 7.01464L8.26433 6.98897L8.30295 6.96368L8.34189 6.93876L8.38117 6.91416L8.42067 6.88995L8.46051 6.8661L8.50058 6.84263L8.54097 6.81954L8.5816 6.79681L8.62251 6.77447L8.6637 6.75254L8.70512 6.73099L8.74682 6.70981L8.78876 6.68905L8.83098 6.66866L8.87343 6.6487L8.91612 6.62911L8.95904 6.60994L9.00219 6.59119L9.04562 6.57282L9.08925 6.55487L9.13305 6.53738L9.17714 6.52027L9.22142 6.50358L9.26588 6.48731L9.31058 6.47151L9.35551 6.45608L9.40058 6.44112L9.44588 6.42658L9.49132 6.41246L9.537 6.3988L9.58282 6.38557L9.62882 6.37281L9.67502 6.36047L9.72135 6.34854L9.76787 6.33709L9.81453 6.3261L9.86137 6.31558L9.90832 6.30548L9.95544 6.29585L10.0027 6.28669L10.0264 6.28229ZM10.607 9.67672L10.0681 9.80548L10.0365 7.1361L10.0111 7.14181L9.97283 7.15083L9.93464 7.16023L9.89672 7.16995L9.85885 7.18005L9.82121 7.19052L9.78358 7.20142L9.74632 7.21254L9.70896 7.22414L9.67207 7.23597L9.63509 7.24826L9.59834 7.26089L9.56178 7.27384L9.52536 7.28712L9.48927 7.30072L9.45322 7.31475L9.41736 7.32905L9.38173 7.34369L9.34615 7.35874L9.31104 7.37398L9.27593 7.38969L9.24115 7.40564L9.20641 7.422L9.172 7.4386L9.13768 7.45557L9.10374 7.47282L9.06994 7.4904L9.03637 7.5083L9.00303 7.52649L8.96988 7.54501L8.93697 7.56385L8.90443 7.58292L8.87184 7.60242L8.83968 7.6221L8.80779 7.64211L8.77609 7.6624L8.74458 7.68302L8.7134 7.70392L8.68245 7.7251L8.65173 7.74651L8.62134 7.76821L8.59109 7.79023L8.56117 7.81253L8.53153 7.83506L8.50212 7.85788L8.47304 7.88088L8.44424 7.90421L8.41562 7.92782L8.38729 7.95171L8.35933 7.97574L8.33161 8.0001L8.30416 8.02465L8.277 8.04947L8.25012 8.07458L8.22356 8.09987L8.19729 8.12535L8.17125 8.15116L8.14558 8.17711L8.12019 8.20334L8.09513 8.22971L8.07026 8.25645L8.04581 8.28324L8.02164 8.31031L7.99774 8.33761L7.97423 8.36501L7.95094 8.39274L7.92808 8.42051L7.90541 8.44865L7.88315 8.47684L7.86113 8.50532L7.83948 8.53398L7.81817 8.56273L7.79713 8.59167L7.77646 8.6208L7.75608 8.65016L7.73602 8.67961L7.71634 8.7093L7.69698 8.73904L7.67795 8.76896L7.6592 8.79912L7.64088 8.82932L7.62278 8.8598L7.60511 8.89024L7.58772 8.92095L7.57065 8.95177L7.55401 8.98267L7.53765 9.01371L7.52166 9.0449L7.50595 9.07627L7.49066 9.10759L7.47565 9.1392L7.46102 9.1708L7.44676 9.20255L7.43278 9.23439L7.41917 9.26637L7.40594 9.29835L7.39304 9.33051L7.38051 9.36273L7.36826 9.39503L7.35643 9.42734L7.34493 9.45983L7.33375 9.49237L7.32295 9.52496L7.31248 9.55759L7.30238 9.59037L7.29261 9.62314L7.28326 9.65592L7.27419 9.68883L7.26545 9.72179L7.25713 9.75475L7.24913 9.78776L7.24146 9.82081L7.23417 9.85392L7.22725 9.88706L7.22066 9.92017L7.21439 9.95331L7.2085 9.98655L7.20299 10.0197L7.1978 10.0529L7.19293 10.0862L7.18845 10.1193L7.18433 10.1526L7.18054 10.1858L7.17708 10.219L7.174 10.2523L7.17124 10.2854L7.16886 10.3186L7.1668 10.3518L7.16507 10.3849L7.16371 10.418L7.16268 10.4511L7.16203 10.4842L7.16166 10.5172L7.1617 10.5502L7.16203 10.5831L7.16273 10.616L7.16376 10.6488L7.16512 10.6816L7.1668 10.7143L7.16886 10.7469L7.17124 10.7795L7.17395 10.8121L7.17699 10.8445L7.18036 10.877L7.18405 10.9092L7.18807 10.9415L7.19242 10.9736L7.19714 11.0057L7.20214 11.0376L7.20747 11.0695L7.21313 11.1013L7.21912 11.133L7.22543 11.1646L7.23202 11.196L7.23899 11.2274L7.24623 11.2587L7.25381 11.2898L7.26166 11.3208L7.26989 11.3518L7.27835 11.3825L7.28714 11.4132L7.29626 11.4437L7.30566 11.4741L7.31538 11.5044L7.32539 11.5345L7.33572 11.5645L7.34633 11.5944L7.35722 11.624L7.3684 11.6536L7.3799 11.683L7.39168 11.7122L7.40374 11.7413L7.41604 11.7702L7.42871 11.799L7.44161 11.8276L7.4548 11.856L7.46826 11.8843L7.48196 11.9123L7.49603 11.9403L7.51025 11.968L7.52479 11.9955L7.53961 12.0229L7.55471 12.0501L7.57005 12.0771L7.58561 12.104L7.60146 12.1305L7.61759 12.157L7.63391 12.1832L7.65051 12.2092L7.66739 12.2351L7.68445 12.2607L7.7018 12.2862L7.71933 12.3113L7.73714 12.3363L7.75519 12.3611L7.77342 12.3857L7.79198 12.4101L7.81068 12.4342L7.82962 12.4581L7.84879 12.4818L7.86819 12.5053L7.88773 12.5285L7.9076 12.5515L7.92761 12.5743L7.94781 12.5969L7.96834 12.6192L7.98891 12.6413L8.00976 12.6632L8.0308 12.6848L8.05198 12.7061L8.07344 12.7273L8.09504 12.7482L8.11682 12.7688L8.1388 12.7892L8.16096 12.8094L8.18331 12.8293L8.2058 12.8489L8.22847 12.8683L8.25129 12.8875L8.27429 12.9064L8.29748 12.925L8.32086 12.9434L8.34428 12.9615L8.36794 12.9794L8.39173 12.997L8.41567 13.0143L8.43975 13.0314L8.46397 13.0482L8.48833 13.0648L8.51282 13.0811L8.53742 13.097L8.56215 13.1128L8.58712 13.1283L8.61208 13.1435L8.63719 13.1584L8.66248 13.1731L8.68777 13.1875L8.71321 13.2016L8.73888 13.2155L8.76454 13.229L8.79031 13.2423L8.81616 13.2553L8.8422 13.2681L8.8682 13.2805L8.89442 13.2927L8.92065 13.3046L8.94693 13.3162L8.97339 13.3276L8.9999 13.3387L9.02641 13.3495L9.05306 13.36L9.07975 13.3702L9.10659 13.3801L9.13333 13.3898L9.16031 13.3992L9.18719 13.4083L9.21417 13.4171L9.24124 13.4257L9.26836 13.434L9.29547 13.4419L9.32264 13.4496L9.34989 13.457L9.37715 13.4642L9.40441 13.471L9.43171 13.4776L9.45902 13.4838L9.48637 13.4898L9.51376 13.4956L9.54116 13.501L9.56856 13.5062L9.59596 13.511L9.6234 13.5157L9.65085 13.52L9.67829 13.524L9.70564 13.5278L9.73308 13.5312L9.76048 13.5345L9.78793 13.5374L9.81532 13.54L9.84272 13.5424L9.87007 13.5445L9.89738 13.5463L9.92473 13.5479L9.95198 13.5492L9.97919 13.5502L10.0065 13.5509L10.0336 13.5513L10.0607 13.5515L10.0878 13.5514L10.1149 13.5511L10.1419 13.5505L10.1689 13.5496L10.1958 13.5485L10.2226 13.547L10.2495 13.5453L10.2761 13.5434L10.3028 13.5412L10.3294 13.5387L10.3559 13.536L10.3824 13.5329L10.4087 13.5297L10.4351 13.5262L10.4613 13.5224L10.4874 13.5184L10.5135 13.5141L10.5394 13.5096L10.5653 13.5048L10.5911 13.4998L10.6168 13.4945L10.6423 13.489L10.6678 13.4832L10.6932 13.4772L10.7185 13.4709L10.7437 13.4645L10.7687 13.4577L10.7936 13.4508L10.8186 13.4435L10.8432 13.4361L10.8677 13.4284L10.8923 13.4205L10.9166 13.4124L10.9409 13.404L10.9649 13.3954L10.9889 13.3866L11.0128 13.3775L11.0365 13.3683L11.06 13.3588L11.0834 13.3491L11.1067 13.3391L11.1299 13.329L11.1528 13.3187L11.1757 13.3081L11.1984 13.2973L11.2209 13.2864L11.2433 13.2752L11.2655 13.2638L11.2876 13.2522L11.3095 13.2404L11.3313 13.2284L11.3528 13.2163L11.3743 13.2039L11.3955 13.1913L11.4166 13.1785L11.4375 13.1656L11.4582 13.1525L11.4788 13.1392L11.4992 13.1257L11.5194 13.112L11.5395 13.0981L11.5594 13.0841L11.579 13.0699L11.5985 13.0555L11.6178 13.041L11.6369 13.0263L11.6559 13.0114L11.6747 12.9963L11.6932 12.9812L11.7115 12.9659L11.7297 12.9503L11.7476 12.9347L11.7654 12.9189L11.783 12.9029L11.8004 12.8868L11.8175 12.8706L11.8345 12.8542L11.8513 12.8376L11.8679 12.821L11.8843 12.8042L11.9004 12.7872L11.9164 12.7702L11.9322 12.7529L11.9476 12.7357L11.963 12.7182L11.9781 12.7006L11.993 12.683L12.0078 12.6651L12.0222 12.6473L12.0365 12.6292L12.0505 12.6111L12.0643 12.5929L12.078 12.5745L12.0914 12.5562L12.1045 12.5376L12.1175 12.5189L12.1303 12.5002L12.1428 12.4814L12.1551 12.4625L12.1672 12.4435L12.179 12.4244L12.1907 12.4052L12.2021 12.386L12.2133 12.3667L12.2242 12.3473L12.235 12.3278L12.2455 12.3082L12.2558 12.2887L12.2658 12.269L12.2757 12.2493L12.2853 12.2295L12.2947 12.2096L12.3039 12.1897L12.3128 12.1697L12.3215 12.1498L12.33 12.1297L12.3383 12.1096L12.3464 12.0894L12.3541 12.0693L12.3617 12.0489L12.369 12.0289L12.3762 12.0085L12.3831 11.9881L12.3897 11.9678L12.3962 11.9474L12.4024 11.9271L12.4084 11.9065L12.4141 11.8862L12.4198 11.8656L12.425 11.8453L12.4301 11.8248L12.435 11.8042L12.4396 11.7837L12.444 11.7634L12.4482 11.7427L12.4522 11.7223L12.4559 11.7017L12.4595 11.6813L12.4628 11.6608L12.4659 11.6403L12.4687 11.6197L12.4713 11.5993L12.4738 11.5789L12.476 11.5585L12.4779 11.538L12.4797 11.5177L12.4812 11.4973L12.4825 11.477L12.4837 11.4567L12.4846 11.4364L12.4852 11.4163L12.4857 11.396L12.486 11.3757L12.486 11.3557L12.4858 11.3356L12.4854 11.3156L12.4848 11.2956L12.484 11.2756L12.483 11.2559L12.4818 11.2358L12.4804 11.2162L12.4788 11.1965L12.4769 11.1767L12.4749 11.1571L12.4727 11.1377L12.4702 11.118L12.4676 11.0988L12.4647 11.0794L12.4617 11.0602L12.4585 11.0409L12.4551 11.0218L12.4515 11.0028L12.4477 10.9838L12.4437 10.9649L12.4394 10.9461L12.4351 10.9274L12.4305 10.9088L12.4258 10.8903L12.4208 10.8717L12.4157 10.8535L12.4104 10.835L12.4049 10.8169L12.3993 10.7988L12.3934 10.7809L12.3874 10.763L12.3812 10.7451L12.3749 10.7275L12.3683 10.71L12.3616 10.6924L12.3547 10.6751L12.3477 10.6577L12.3405 10.6408L12.3331 10.6236L12.3256 10.6067L12.3179 10.59L12.31 10.5733L12.302 10.5567L12.2939 10.5403L12.2855 10.5239L12.2771 10.5077L12.2684 10.4916L12.2597 10.4757L12.2507 10.4598L12.2416 10.4441L12.2325 10.4286L12.2231 10.4131L12.2136 10.3977L12.2039 10.3826L12.1942 10.3676L12.1843 10.3527L12.1742 10.3379L12.1641 10.3233L12.1537 10.3087L12.1433 10.2944L12.1327 10.2802L12.122 10.2661L12.1113 10.2522L12.1003 10.2383L12.0893 10.2247L12.0781 10.2112L12.0668 10.1978L12.0554 10.1846L12.044 10.1716L12.0323 10.1587L12.0206 10.1459L12.0088 10.1332L11.9968 10.1208L11.9848 10.1085L11.9726 10.0963L11.9604 10.0843L11.9481 10.0725L11.9357 10.0608L11.9231 10.0492L11.9105 10.0378L11.8978 10.0266L11.885 10.0155L11.8721 10.0046L11.8592 9.99389L11.8461 9.98328L11.8331 9.97286L11.8199 9.96257L11.8066 9.95243L11.7933 9.94251L11.7798 9.93269L11.7663 9.92306L11.7528 9.91362L11.7392 9.90427L11.7256 9.89515L11.7118 9.88618L11.698 9.87734L11.6842 9.86869L11.6702 9.86018L11.6563 9.85186L11.6423 9.84372L11.6282 9.83573L11.6141 9.82787L11.5999 9.82021L11.5858 9.81268L11.5715 9.80534L11.5573 9.79819L11.5429 9.79113L11.5286 9.7843L11.5142 9.77766L11.4998 9.77112L11.4853 9.76476L11.4708 9.75854L11.4564 9.75255L11.4418 9.74671L11.4272 9.74101L11.4127 9.73549L11.3981 9.73011L11.3835 9.72492L11.3689 9.71987L11.3543 9.71496L11.3397 9.71029L11.325 9.70571L11.3103 9.70131L11.2957 9.69711L11.2809 9.69304L11.2664 9.68916L11.2517 9.68542L11.237 9.68182L11.2223 9.6784L11.2077 9.67513L11.193 9.67204L11.1784 9.6691L11.1638 9.6663L11.1492 9.66368L11.1345 9.6612L11.12 9.65891L11.1053 9.65676L11.0909 9.65475L11.0763 9.65288L11.0618 9.65119L11.0474 9.64965L11.0329 9.64829L11.0185 9.64703L11.0041 9.64596L10.9898 9.64502L10.9754 9.64423L10.9611 9.64362L10.9469 9.64315L10.9327 9.64278L10.9185 9.64259L10.9043 9.64254L10.8903 9.64268L10.8762 9.64292L10.8622 9.64329L10.8482 9.64385L10.8344 9.64451L10.8205 9.64535L10.8067 9.64628L10.793 9.64736L10.7793 9.64862L10.7657 9.64998L10.752 9.65147L10.7386 9.65311L10.7251 9.65489L10.7117 9.6568L10.6984 9.65886L10.6851 9.66101L10.6719 9.6633L10.6588 9.66573L10.6457 9.66831L10.6328 9.67097L10.6198 9.67377L10.607 9.67672Z" fill="#D1D1D1"/>
</svg>
