<svg width="20" height="21" viewBox="0 0 20 21" fill="none" xmlns="http://www.w3.org/2000/svg">
<path fill-rule="evenodd" clip-rule="evenodd" d="M5.54797 1.92623C6.4788 1.93873 7.14213 2.63623 7.9813 3.51873C8.1888 3.73623 8.41297 3.97373 8.6638 4.22373C9.87963 5.4404 9.5338 6.4329 9.25463 7.22956C8.9513 8.09873 8.6888 8.84873 10.2605 10.4204C11.8321 11.9921 12.5813 11.7296 13.4496 11.4237C14.2471 11.1454 15.2371 10.7971 16.4555 12.0137C16.703 12.2612 16.9363 12.4829 17.153 12.6887C18.0388 13.5321 18.7388 14.1979 18.7506 15.1312C18.7596 15.9262 18.2763 16.7379 17.083 17.9312L16.5546 17.5729L17.0021 18.0087C16.738 18.2796 16.0355 19.0012 14.6596 19.0096H14.6346C12.558 19.0096 9.85047 17.3562 6.58713 14.0937C3.31047 10.8179 1.65463 8.10206 1.66706 6.02123C1.67463 4.64623 2.39547 3.94206 2.6663 3.6779L2.68942 3.65265L2.74547 3.59623C3.9413 2.4004 4.76297 1.90873 5.54797 1.92623ZM5.53213 3.17623H5.52547C5.15125 3.17623 4.58294 3.55123 3.79032 4.32114L3.63116 4.47745L3.63297 4.47706C3.63297 4.47706 3.61937 4.49266 3.59619 4.5163L3.54047 4.57206C3.3388 4.7679 2.9213 5.1754 2.91709 6.0279C2.91047 7.2204 3.69463 9.43456 7.47047 13.2096C11.228 16.9662 13.4388 17.7596 14.6346 17.7596H14.6521C15.5046 17.7546 15.9113 17.3371 16.1071 17.1362C16.1663 17.0754 16.2146 17.0296 16.2488 17.0021C17.0796 16.1662 17.5046 15.5454 17.5005 15.1462C17.4955 14.7396 16.9896 14.2596 16.2905 13.5937C16.068 13.3829 15.8263 13.1521 15.5713 12.8971C14.9096 12.2379 14.5838 12.3504 13.863 12.6037C12.8671 12.9529 11.503 13.4312 9.37713 11.3037C7.25047 9.1779 7.72713 7.81373 8.07463 6.81706C8.3263 6.09706 8.4413 5.76956 7.78047 5.1079C7.52213 4.84956 7.28963 4.60456 7.07547 4.37956C6.4138 3.68456 5.9363 3.18206 5.53213 3.17623ZM12.7055 4.89081C14.4397 5.22748 15.7789 6.56581 16.1164 8.30081C16.1822 8.64081 15.9614 8.96831 15.623 9.03415C15.5822 9.04165 15.5422 9.04581 15.5022 9.04581C15.2089 9.04581 14.948 8.83915 14.8897 8.54081C14.6497 7.30748 13.6989 6.35665 12.4672 6.11748C12.128 6.05165 11.9072 5.72415 11.9731 5.38498C12.0389 5.04581 12.3722 4.82415 12.7055 4.89081ZM12.6556 1.93098C16.054 2.30848 18.6931 4.94431 19.074 8.34181C19.1123 8.68515 18.8656 8.99431 18.5231 9.03265C18.4998 9.03515 18.4756 9.03681 18.4523 9.03681C18.1381 9.03681 17.8681 8.80098 17.8323 8.48181C17.5165 5.66848 15.3315 3.48515 12.5173 3.17265C12.1748 3.13431 11.9273 2.82598 11.9656 2.48265C12.0031 2.14015 12.309 1.88765 12.6556 1.93098Z" fill="#B0B0B2"/>
</svg>
